<svg width="1284" height="472" viewBox="0 0 1284 472" fill="none" xmlns="http://www.w3.org/2000/svg">
<rect x="1" y="1" width="581" height="98" rx="30" fill="#F3F3F3"/>
<rect x="0.5" y="0.5" width="582" height="99" rx="30.5" stroke="#6E6E82" stroke-opacity="0.2"/>
<path d="M40.2031 52.0781H42.2188L43.0781 53.1875C43.6172 52.5547 43.9219 51.6016 43.9219 50.3438C43.9219 47.9219 42.7812 46.6094 41.0312 46.6094C39.2812 46.6094 38.125 47.9219 38.125 50.3438C38.125 52.7656 39.2812 54.0781 41.0312 54.0781C41.2578 54.0781 41.4766 54.0547 41.6875 54.0156L40.2031 52.0781ZM46.3125 50.3438C46.3125 52.3594 45.625 53.9141 44.5156 54.8906L46.125 56.9375H43.9219L43.0156 55.7969C42.4062 56.0391 41.7344 56.1562 41.0312 56.1562C38.0156 56.1562 35.7344 54.0156 35.7344 50.3438C35.7344 46.6562 38.0156 44.5312 41.0312 44.5312C44.0156 44.5312 46.3125 46.6562 46.3125 50.3438ZM48.6094 56.1406C47.875 56.1406 47.2812 55.5469 47.2969 54.8281C47.2812 54.1094 47.875 53.5312 48.6094 53.5312C49.2969 53.5312 49.9062 54.1094 49.9062 54.8281C49.9062 55.5469 49.2969 56.1406 48.6094 56.1406ZM59.0938 43.8125C61.2656 43.7969 62.8438 45.0312 62.8438 46.8281C62.8438 48.6094 61.2656 49.8594 59.0938 49.8438C56.9219 49.8594 55.3438 48.6094 55.3594 46.8281C55.3438 45.0312 56.9219 43.7969 59.0938 43.8125ZM59.0938 45.4062C58.0312 45.4062 57.2812 45.9219 57.2812 46.8281C57.2812 47.7188 58.0312 48.2344 59.0938 48.2188C60.1875 48.2344 60.9531 47.7188 60.9531 46.8281C60.9531 45.9219 60.1875 45.4062 59.0938 45.4062ZM66.4375 43.2344V57.4375H64.4688V43.2344H66.4375ZM54.4844 50.7188C57 50.7188 60.5781 50.6562 63.6094 50.2031L63.7344 51.6719C62.5625 51.9062 61.3594 52.0547 60.1719 52.1406V57.0156H58.1875V52.2656C56.9375 52.3203 55.7578 52.3281 54.7344 52.3438L54.4844 50.7188ZM71.9062 43.4375V44.4219H77.6094V43.4375H79.5938V48.2031H75.7188V49.125H81.25V50.6875H68.2812V49.125H73.75V48.2031H69.9375V43.4375H71.9062ZM71.9062 46.7188H77.6094V45.8594H71.9062V46.7188ZM79.6719 51.4375V55.0312H71.75V55.8438H80.0469V57.3438H69.7969V53.6562H77.7031V52.8906H69.7812V51.4375H79.6719ZM94 43.2344V53.7031H92.0156V43.2344H94ZM94.375 55.5938V57.1875H84.4375V52.8281H86.4219V55.5938H94.375ZM89.4375 44.1562V48.6875H84.8125V50.2656C87.3516 50.2578 88.9766 50.1875 90.8125 49.8281L91.0312 51.4219C88.9688 51.8125 87.125 51.8906 84.1094 51.8906H82.8594V47.2188H87.4531V45.75H82.8438V44.1562H89.4375ZM107.844 43.2188V57.4688H105.828V43.2188H107.844ZM100.125 44.2188C102.266 44.2188 103.859 46.1875 103.859 49.2812C103.859 52.4062 102.266 54.3594 100.125 54.3594C97.9375 54.3594 96.3438 52.4062 96.3594 49.2812C96.3438 46.1875 97.9375 44.2188 100.125 44.2188ZM100.125 46.0156C99.0156 46.0156 98.2812 47.1719 98.2812 49.2812C98.2812 51.4062 99.0156 52.5469 100.125 52.5469C101.203 52.5469 101.938 51.4062 101.938 49.2812C101.938 47.1719 101.203 46.0156 100.125 46.0156ZM126.422 50.1406V51.7344H113.453V50.1406H118.938V48.25H120.906V50.1406H126.422ZM120.938 43.9219C120.938 45.5781 122.531 47.1562 125.734 47.5469L124.969 49.0938C122.57 48.7344 120.805 47.7266 119.906 46.2969C118.992 47.7266 117.227 48.7422 114.828 49.0938L114.125 47.5469C117.266 47.1562 118.906 45.5312 118.906 43.9219V43.4531H120.938V43.9219ZM124.844 52.7344V57.4375H122.859V54.2812H114.891V52.7344H124.844ZM138.562 43.2344V47.5938H140.484V49.2188H138.562V53.8438H136.562V43.2344H138.562ZM135.719 44.7188V46.2969H127.281V44.7188H130.516V43.2031H132.5V44.7188H135.719ZM131.5 46.7969C133.562 46.7969 135 47.9062 135 49.5469C135 51.1875 133.562 52.2656 131.5 52.2656C129.422 52.2656 127.969 51.1875 127.969 49.5469C127.969 47.9062 129.422 46.7969 131.5 46.7969ZM131.5 48.3125C130.547 48.3281 129.906 48.7656 129.922 49.5469C129.906 50.3281 130.547 50.75 131.5 50.75C132.453 50.75 133.109 50.3281 133.109 49.5469C133.109 48.7656 132.453 48.3281 131.5 48.3125ZM139.078 55.5938V57.1875H129.344V53.0312H131.328V55.5938H139.078ZM150.047 45.6562C150.031 47.4688 151.062 49.2344 153.375 49.9844L152.328 51.5469C150.773 51.0234 149.703 50 149.094 48.7031C148.453 50.1328 147.32 51.25 145.672 51.8125L144.562 50.2344C146.984 49.4844 148.031 47.5781 148.047 45.6406V44.0938H150.047V45.6562ZM156.078 43.2188V47.3281H158V49.0156H156.078V53.6406H154.078V43.2188H156.078ZM156.609 55.5938V57.1875H146.844V52.6094H148.875V55.5938H156.609ZM162.594 43.8281C164.414 43.8125 165.859 44.8516 166.25 46.375H168.625V43.2188H170.609V50.8594H168.625V47.9688H166.266C165.891 49.5312 164.43 50.5938 162.594 50.5938C160.406 50.5938 158.797 49.1719 158.812 47.1875C158.797 45.2344 160.406 43.8125 162.594 43.8281ZM162.594 45.4844C161.484 45.4688 160.688 46.125 160.703 47.1875C160.688 48.25 161.484 48.9219 162.594 48.9219C163.672 48.9219 164.453 48.25 164.453 47.1875C164.453 46.125 163.672 45.4688 162.594 45.4844ZM163.094 51.4844V52.8594H168.625V51.4844H170.609V57.2812H161.125V51.4844H163.094ZM163.094 55.6719H168.625V54.3906H163.094V55.6719ZM184.781 43.2188V57.4375H182.875V43.2188H184.781ZM181.812 43.4219V56.7812H179.938V50.0625H178.797C178.609 52.8594 177.422 54.5469 175.672 54.5469C173.797 54.5469 172.578 52.5781 172.578 49.375C172.578 46.1875 173.797 44.2344 175.672 44.2344C177.383 44.2344 178.555 45.8281 178.781 48.4844H179.938V43.4219H181.812ZM175.672 46.1094C174.875 46.1094 174.406 47.2031 174.422 49.375C174.406 51.5625 174.875 52.6406 175.672 52.625C176.484 52.6406 176.969 51.5625 176.969 49.375C176.969 47.2031 176.484 46.1094 175.672 46.1094ZM191.656 46.4375C191.656 49.1094 192.734 51.7031 195.109 52.7344L193.891 54.3281C192.312 53.5547 191.258 52.1406 190.672 50.3906C190.047 52.25 188.953 53.7734 187.328 54.5781L186.078 52.9531C188.516 51.8594 189.625 49.1094 189.641 46.4375V44.3125H191.656V46.4375ZM198.281 43.2188V57.4688H196.312V49.2969H193.516V47.6875H196.312V43.2188H198.281ZM204.719 44.1719C206.969 44.1562 208.656 45.625 208.656 47.6562C208.656 49.7031 206.969 51.1562 204.719 51.1562C202.469 51.1562 200.766 49.7031 200.766 47.6562C200.766 45.625 202.469 44.1562 204.719 44.1719ZM204.719 45.8906C203.594 45.8906 202.734 46.5469 202.75 47.6562C202.734 48.7812 203.594 49.4219 204.719 49.4219C205.844 49.4219 206.703 48.7812 206.719 47.6562C206.703 46.5469 205.859 45.8906 204.719 45.8906ZM212.062 43.2188V57.4688H210.078V43.2188H212.062ZM200.172 52.9375C202.703 52.9531 206.219 52.9062 209.266 52.4844L209.422 53.9219C206.266 54.5312 202.891 54.5625 200.406 54.5625L200.172 52.9375ZM223.328 50.9062V53.0469C224.492 52.9766 225.672 52.8672 226.781 52.7031L226.938 54.1562C223.781 54.7656 220.406 54.7969 217.922 54.7969L217.688 53.1875C218.758 53.1797 220.016 53.1719 221.344 53.125V50.9062H223.328ZM226.266 44.8906V46.5H223.359C223.492 47.875 224.562 49.1641 226.703 49.6875L225.797 51.2344C224.133 50.8125 222.984 49.8906 222.344 48.7031C221.711 49.9453 220.578 50.9141 218.906 51.3438L217.969 49.8438C220.117 49.2734 221.156 47.9375 221.297 46.5H218.422V44.8906H221.344V43.3438H223.328V44.8906H226.266ZM229.578 43.2188V57.4688H227.594V43.2188H229.578ZM243.359 43.2344V53.6094H241.359V43.2344H243.359ZM243.734 55.5938V57.1875H233.828V52.6094H235.844V55.5938H243.734ZM236.906 45.3906C236.891 47.2656 237.891 49.1094 240.234 49.8594L239.219 51.4219C237.617 50.8906 236.508 49.8281 235.875 48.4688C235.242 49.9297 234.102 51.1016 232.438 51.6719L231.406 50.0938C233.797 49.2969 234.828 47.3125 234.828 45.3906V44.0156H236.906V45.3906ZM260.922 43.2188V57.4375H258.906V43.2188H260.922ZM256.656 44.7031C256.656 49.0156 255.141 52.5938 250.062 55L249.016 53.4062C252.688 51.6719 254.305 49.4219 254.625 46.2656H249.781V44.7031H256.656ZM270.312 43.5938C270.312 44.9844 271.953 46.375 275.125 46.7188L274.469 48.2188C271.992 47.9453 270.188 47.0156 269.281 45.7031C268.352 47.0156 266.555 47.9453 264.109 48.2188L263.438 46.7188C266.625 46.375 268.25 44.9844 268.266 43.5938V43.2969H270.312V43.5938ZM275.766 48.8125V50.375H270.266V51.3125H274.188V54.9844H266.266V55.8438H274.562V57.3438H264.312V53.5781H272.219V52.8281H264.297V51.3125H268.266V50.375H262.797V48.8125H275.766ZM291.906 50.5625V52.1406H281.844V44.2656H291.797V45.875H283.875V47.375H291.469V48.9375H283.875V50.5625H291.906ZM293.328 54.1562V55.7812H280.312V54.1562H293.328ZM299.734 44.2812V48.7969H296.656V50.3438C298.188 50.3359 299.32 50.25 300.656 50.0156L300.844 51.5781C299.219 51.8906 297.812 51.9219 295.703 51.9219H294.719V47.3594H297.812V45.8281H294.703V44.2812H299.734ZM306.359 43.2344V53.9219H304.469V43.2344H306.359ZM303.453 43.4688V53.5781H301.578V48.4062H300.266V46.7812H301.578V43.4688H303.453ZM306.719 55.5938V57.1875H296.719V52.8438H298.719V55.5938H306.719ZM319.562 49.7969V51.3906H309.5V44.4062H319.453V46.0156H311.469V49.7969H319.562ZM320.984 54.0625V55.7031H307.969V54.0625H320.984ZM334.797 49.5938V51.0781H321.781V49.5938H334.797ZM333.234 51.7812V55.1406H325.266V55.9531H333.656V57.3125H323.281V53.875H331.266V53.1562H323.266V51.7812H333.234ZM333.219 43.4688V46.8125H325.391V47.5781H333.469V48.9219H323.406V45.5469H331.219V44.8281H323.375V43.4688H333.219ZM343.234 44.2188C345.156 44.2188 346.586 45.8047 346.875 48.3594H349.344V43.2188H351.312V57.4688H349.344V49.9531H346.891C346.68 52.6875 345.219 54.3594 343.234 54.3594C341.078 54.3594 339.531 52.4062 339.547 49.2812C339.531 46.1875 341.078 44.2188 343.234 44.2188ZM343.234 46.0156C342.172 46.0156 341.438 47.1719 341.453 49.2812C341.438 51.4062 342.172 52.5469 343.234 52.5469C344.312 52.5469 345.016 51.4062 345.016 49.2812C345.016 47.1719 344.312 46.0156 343.234 46.0156ZM365.469 51.5V53.0156H354.953V51.5H359.219V50.3906H361.219V51.5H365.469ZM360.188 53.4375C362.797 53.4375 364.375 54.1719 364.375 55.4375C364.375 56.75 362.797 57.4531 360.188 57.4531C357.562 57.4531 355.984 56.75 356 55.4375C355.984 54.1719 357.562 53.4375 360.188 53.4375ZM360.188 54.8125C358.844 54.8281 358.125 55 358.125 55.4375C358.125 55.9062 358.844 56.0938 360.188 56.0938C361.5 56.0938 362.219 55.9062 362.219 55.4375C362.219 55 361.5 54.8281 360.188 54.8125ZM357.109 43.7969V45.3438H355.312V48.3281C355.945 48.3047 356.555 48.2344 357.25 48.0938L357.375 49.6562C356.172 49.8906 355.281 49.9062 354.062 49.9062H353.375V43.7969H357.109ZM361.75 43.7969V45.3438H359.734V48.3438C360.742 48.3203 361.375 48.2578 362.109 48.0938L362.25 49.6562C361.266 49.8906 360.406 49.9062 358.531 49.9062H357.766V43.7969H361.75ZM365.25 43.2188V50.7969H363.297V47.4844H361.359V45.9688H363.297V43.2188H365.25ZM379.297 43.2188V57.4375H377.422V43.2188H379.297ZM376.266 43.5312V56.8125H374.406V50.2812H372.078C371.266 51.9062 369.945 53.3125 367.922 54.4844L366.797 53.0781C369.664 51.375 370.93 49.3047 371.203 46.5156H367.578V44.9062H373.188C373.18 46.2578 373.039 47.5312 372.703 48.7031H374.406V43.5312H376.266ZM395.984 43.1719V48.5312H397.703V50.2031H395.984V57.4375H394V43.1719H395.984ZM388.469 44.6406V46.2344H386.766V52.2812C387.344 52.2578 387.906 52.1953 388.547 52.0781L388.703 53.7188C387.531 53.9219 386.609 53.9531 385.484 53.9375H384.766V44.6406H388.469ZM393.047 44.6406V46.2344H391.172V52.2969C392.031 52.2734 392.609 52.2109 393.25 52.0469L393.406 53.6875C392.438 53.9219 391.641 53.9531 389.953 53.9375H389.203V44.6406H393.047ZM409.531 43.2188V48.5938H411.625V50.2344H409.531V57.4688H407.562V43.2188H409.531ZM405.469 44.4062V49.9219H400.891V52.5C402.961 52.4922 404.672 52.3984 406.562 52.0781L406.734 53.6719C404.562 54.0625 402.609 54.1562 400.109 54.1562H398.906V48.3438H403.484V46.0156H398.891V44.4062H405.469ZM423.359 43.2188V48.6719H425.375V50.3125H423.359V57.4062H421.359V43.2188H423.359ZM419.562 44.6719C419.547 48.9219 417.891 52.6094 413.109 54.9531L411.984 53.4219C415.352 51.7344 417.156 49.4688 417.531 46.2969H412.797V44.6719H419.562ZM437.688 44.4531V45.7969C437.688 47.5781 437.688 49.5781 437.109 52.5938L435.109 52.3906C435.648 49.7031 435.672 47.7031 435.688 46.0312H427.312V44.4531H437.688ZM438.938 54.0781V55.7031H425.969V54.0781H430.609V49.1875H432.594V54.0781H438.938ZM455.812 43.2188V57.4375H453.938V43.2188H455.812ZM452.844 43.5312V56.8125H450.953V52.125H448.938V50.5156H450.953V48.5781H449.203C448.539 50.9219 447.102 52.9062 444.438 54.4844L443.266 53.0781C446.148 51.375 447.414 49.3047 447.688 46.5156H444.094V44.9062H449.672C449.672 45.6172 449.625 46.3047 449.547 46.9688H450.953V43.5312H452.844ZM469.219 43.2344V53.6094H467.219V43.2344H469.219ZM469.594 55.5938V57.1875H459.688V52.6094H461.703V55.5938H469.594ZM462.766 45.3906C462.75 47.2656 463.75 49.1094 466.094 49.8594L465.078 51.4219C463.477 50.8906 462.367 49.8281 461.734 48.4688C461.102 49.9297 459.961 51.1016 458.297 51.6719L457.266 50.0938C459.656 49.2969 460.688 47.3125 460.688 45.3906V44.0156H462.766V45.3906ZM482.359 43.2188V48.6719H484.375V50.3125H482.359V57.4062H480.359V43.2188H482.359ZM478.562 44.6719C478.547 48.9219 476.891 52.6094 472.109 54.9531L470.984 53.4219C474.352 51.7344 476.156 49.4688 476.531 46.2969H471.797V44.6719H478.562ZM497.984 54.1406V55.7812H484.969V54.1406H487.875V50.6562C486.773 50 486.109 48.9922 486.109 47.7344C486.109 45.4375 488.359 43.9062 491.453 43.9062C494.531 43.9062 496.797 45.4375 496.812 47.7344C496.805 48.9609 496.156 49.9609 495.094 50.625V54.1406H497.984ZM491.453 45.4844C489.422 45.4844 488.078 46.2969 488.078 47.7344C488.078 49.125 489.422 49.9844 491.453 49.9844C493.469 49.9844 494.828 49.125 494.844 47.7344C494.828 46.2969 493.469 45.4844 491.453 45.4844ZM489.844 54.1406H493.078V51.375C492.57 51.4766 492.023 51.5312 491.453 51.5312C490.883 51.5312 490.344 51.4844 489.844 51.375V54.1406ZM501.281 52.4375C501.297 50.5 501.812 49.8906 502.75 49.3125C503.422 48.875 503.938 48.3906 503.938 47.6719C503.938 46.8906 503.328 46.375 502.578 46.375C501.844 46.375 501.172 46.8594 501.141 47.7812H498.922C498.969 45.5781 500.594 44.5312 502.594 44.5312C504.766 44.5312 506.312 45.6719 506.312 47.5938C506.312 48.875 505.656 49.7031 504.625 50.3125C503.75 50.8438 503.359 51.3438 503.344 52.4375V52.6094H501.281V52.4375ZM502.359 56.1406C501.625 56.1406 501.031 55.5469 501.047 54.8281C501.031 54.1094 501.625 53.5312 502.359 53.5312C503.047 53.5312 503.656 54.1094 503.656 54.8281C503.656 55.5469 503.047 56.1406 502.359 56.1406Z" fill="black"/>
<rect x="141" y="125" width="542" height="98" rx="30" fill="#F3F3F3"/>
<rect x="140.5" y="124.5" width="543" height="99" rx="30.5" stroke="#6E6E82" stroke-opacity="0.2"/>
<path d="M180.203 176.078H182.219L183.078 177.188C183.617 176.555 183.922 175.602 183.922 174.344C183.922 171.922 182.781 170.609 181.031 170.609C179.281 170.609 178.125 171.922 178.125 174.344C178.125 176.766 179.281 178.078 181.031 178.078C181.258 178.078 181.477 178.055 181.688 178.016L180.203 176.078ZM186.312 174.344C186.312 176.359 185.625 177.914 184.516 178.891L186.125 180.938H183.922L183.016 179.797C182.406 180.039 181.734 180.156 181.031 180.156C178.016 180.156 175.734 178.016 175.734 174.344C175.734 170.656 178.016 168.531 181.031 168.531C184.016 168.531 186.312 170.656 186.312 174.344ZM188.609 180.141C187.875 180.141 187.281 179.547 187.297 178.828C187.281 178.109 187.875 177.531 188.609 177.531C189.297 177.531 189.906 178.109 189.906 178.828C189.906 179.547 189.297 180.141 188.609 180.141ZM202.391 168.453V170.016H194.484V168.453H197.547V167.094H199.531V168.453H202.391ZM198.516 170.422C200.469 170.422 201.875 171.484 201.891 173.016C201.875 174.547 200.469 175.594 198.516 175.594C196.547 175.594 195.172 174.547 195.188 173.016C195.172 171.484 196.547 170.422 198.516 170.422ZM198.516 171.906C197.609 171.906 197.031 172.297 197.047 173.016C197.031 173.734 197.609 174.141 198.516 174.141C199.406 174.141 200.031 173.734 200.031 173.016C200.031 172.297 199.406 171.906 198.516 171.906ZM206.438 167.219V175.688H204.453V174.656H202.516V173.062H204.453V171.859H202.547V170.25H204.453V167.219H206.438ZM198.844 176.219V177.266H204.469V176.219H206.438V181.281H196.844V176.219H198.844ZM198.844 179.75H204.469V178.75H198.844V179.75ZM212.25 167.828C214.07 167.812 215.516 168.852 215.906 170.375H218.281V167.219H220.266V174.859H218.281V171.969H215.922C215.547 173.531 214.086 174.594 212.25 174.594C210.062 174.594 208.453 173.172 208.469 171.188C208.453 169.234 210.062 167.812 212.25 167.828ZM212.25 169.484C211.141 169.469 210.344 170.125 210.359 171.188C210.344 172.25 211.141 172.922 212.25 172.922C213.328 172.922 214.109 172.25 214.109 171.188C214.109 170.125 213.328 169.469 212.25 169.484ZM212.75 175.484V176.859H218.281V175.484H220.266V181.281H210.781V175.484H212.75ZM212.75 179.672H218.281V178.391H212.75V179.672ZM237.172 167.219V171.891H238.984V173.531H237.172V178.312H235.172V167.219H237.172ZM237.656 179.594V181.188H227.641V177.578H229.641V179.594H237.656ZM225.641 175.391C226.664 175.391 227.852 175.383 229.094 175.344V174.516C227.547 174.305 226.578 173.531 226.594 172.422C226.578 171.016 227.969 170.188 230.078 170.203C232.172 170.188 233.547 171.016 233.562 172.422C233.547 173.523 232.602 174.297 231.078 174.516V175.25C232.25 175.18 233.422 175.07 234.516 174.906L234.656 176.281C231.656 176.859 228.297 176.891 225.844 176.922L225.641 175.391ZM234.156 168.375V169.797H226.016V168.375H229.094V167.172H231.078V168.375H234.156ZM230.078 171.531C229.062 171.531 228.484 171.812 228.5 172.422C228.484 172.953 229.062 173.25 230.078 173.25C231.078 173.25 231.641 172.953 231.656 172.422C231.641 171.812 231.078 171.531 230.078 171.531ZM251.609 167.234V175.422H249.625V174.031H246.422V172.438H249.625V171.078H246.562C245.68 173.328 243.664 174.875 240.531 175.734L239.75 174.156C243.023 173.297 244.625 171.734 244.906 169.781H240.516V168.188H247.078C247.078 168.648 247.047 169.094 246.984 169.516H249.625V167.234H251.609ZM246.875 175.594C249.766 175.594 251.703 176.703 251.719 178.469C251.703 180.25 249.766 181.375 246.875 181.375C243.953 181.375 242 180.25 242.016 178.469C242 176.703 243.953 175.594 246.875 175.594ZM246.875 177.156C245.078 177.141 244 177.594 244 178.469C244 179.344 245.078 179.797 246.875 179.797C248.641 179.797 249.719 179.344 249.719 178.469C249.719 177.594 248.641 177.141 246.875 177.156ZM265.781 167.219V181.438H263.875V167.219H265.781ZM262.812 167.422V180.781H260.938V174.062H259.797C259.609 176.859 258.422 178.547 256.672 178.547C254.797 178.547 253.578 176.578 253.578 173.375C253.578 170.188 254.797 168.234 256.672 168.234C258.383 168.234 259.555 169.828 259.781 172.484H260.938V167.422H262.812ZM256.672 170.109C255.875 170.109 255.406 171.203 255.422 173.375C255.406 175.562 255.875 176.641 256.672 176.625C257.484 176.641 257.969 175.562 257.969 173.375C257.969 171.203 257.484 170.109 256.672 170.109ZM272.656 170.438C272.656 173.109 273.734 175.703 276.109 176.734L274.891 178.328C273.312 177.555 272.258 176.141 271.672 174.391C271.047 176.25 269.953 177.773 268.328 178.578L267.078 176.953C269.516 175.859 270.625 173.109 270.641 170.438V168.312H272.656V170.438ZM279.281 167.219V181.469H277.312V173.297H274.516V171.688H277.312V167.219H279.281ZM287.203 167.859V169.547H290.109V167.859H292.109V174.062H285.219V167.859H287.203ZM287.203 172.5H290.109V171.047H287.203V172.5ZM296.078 167.219V169.984H298V171.594H296.078V174.453H294.078V167.219H296.078ZM296.078 174.984V178.844H288.625V179.766H296.484V181.344H286.672V177.422H294.094V176.531H286.641V174.984H296.078ZM303.172 169.75C303.172 171.281 303.969 172.812 305.859 173.531L304.797 175.047C303.586 174.586 302.75 173.742 302.234 172.688C301.719 173.922 300.828 174.953 299.5 175.5L298.422 173.969C300.422 173.094 301.234 171.344 301.234 169.75V168.078H303.172V169.75ZM310.844 167.234V175.922H308.953V172.312H307.766V175.484H305.906V167.484H307.766V170.703H308.953V167.234H310.844ZM305.984 176.125C308.984 176.125 310.906 177.125 310.922 178.781C310.906 180.438 308.984 181.438 305.984 181.438C302.969 181.438 301.062 180.438 301.062 178.781C301.062 177.125 302.969 176.125 305.984 176.125ZM305.984 177.609C304.125 177.609 303.047 178.016 303.062 178.781C303.047 179.547 304.125 179.938 305.984 179.938C307.828 179.938 308.906 179.547 308.906 178.781C308.906 178.016 307.828 177.609 305.984 177.609ZM323.734 167.188V170.281H325.656V171.875H323.734V174.891H321.734V167.188H323.734ZM323.734 175.469V179.062H316.281V179.875H324.141V181.344H314.328V177.703H321.75V176.906H314.297V175.469H323.734ZM320.891 168.281V169.797H312.453V168.281H315.688V167.125H317.672V168.281H320.891ZM316.672 170.141C318.797 170.141 320.172 171.047 320.172 172.469C320.172 173.922 318.797 174.797 316.672 174.797C314.547 174.797 313.141 173.922 313.141 172.469C313.141 171.047 314.547 170.141 316.672 170.141ZM316.672 171.547C315.688 171.547 315.078 171.875 315.094 172.469C315.078 173.078 315.688 173.375 316.672 173.375C317.656 173.375 318.281 173.078 318.281 172.469C318.281 171.875 317.656 171.547 316.672 171.547ZM337.516 168.328C337.516 170 339.219 171.859 342.484 172.266L341.703 173.875C339.219 173.516 337.398 172.367 336.469 170.828C335.531 172.367 333.727 173.516 331.266 173.875L330.469 172.266C333.703 171.859 335.422 170 335.422 168.328V167.641H337.516V168.328ZM342.938 174.953V176.578H337.406V181.438H335.438V176.578H329.969V174.953H342.938ZM352.656 176.344C352.656 177.492 353.133 178.672 354.297 179.453C355.469 178.625 355.984 177.398 355.984 176.344V175.859H357.953V176.344C357.938 177.828 358.734 179.203 360.625 179.781L359.656 181.234C358.297 180.773 357.406 179.906 356.922 178.812C356.445 179.906 355.617 180.859 354.344 181.359C353 180.875 352.164 179.953 351.703 178.859C351.203 179.922 350.328 180.781 349.031 181.234L348.047 179.781C349.922 179.141 350.703 177.734 350.719 176.344V175.859H352.656V176.344ZM359.391 167.234V175.266H357.391V167.234H359.391ZM351.594 167.953C353.812 167.953 355.484 169.359 355.484 171.375C355.484 173.359 353.812 174.766 351.594 174.766C349.375 174.766 347.703 173.359 347.703 171.375C347.703 169.359 349.375 167.953 351.594 167.953ZM351.594 169.625C350.453 169.625 349.641 170.281 349.656 171.375C349.641 172.453 350.453 173.109 351.594 173.109C352.703 173.109 353.516 172.453 353.516 171.375C353.516 170.281 352.703 169.625 351.594 169.625ZM372.859 171.094V172.656H362.922V167.719H364.906V171.094H372.859ZM374.312 174.188V175.75H361.297V174.188H374.312ZM372.953 179.531V181.125H362.797V176.906H364.797V179.531H372.953ZM391.797 174.062V175.625H386.297V176.641C388.797 176.805 390.234 177.625 390.25 179.016C390.234 180.594 388.406 181.438 385.297 181.438C382.172 181.438 380.312 180.594 380.312 179.016C380.312 177.625 381.789 176.805 384.312 176.641V175.625H378.828V174.062H391.797ZM386.281 167.266V168.484H390.547V170.062H386.469C386.773 171.039 388.234 171.898 391.219 172.094L390.625 173.609C388 173.422 386.188 172.656 385.297 171.5C384.398 172.656 382.586 173.422 379.984 173.609L379.375 172.094C382.359 171.898 383.805 171.039 384.125 170.062H380.078V168.484H384.312V167.266H386.281ZM385.297 178.078C383.312 178.078 382.328 178.375 382.344 179.016C382.328 179.672 383.312 179.969 385.297 179.969C387.234 179.969 388.234 179.672 388.25 179.016C388.234 178.375 387.234 178.078 385.297 178.078ZM404.109 170.5V172.062H400.141V173H405.625V174.578H392.656V173H398.141V172.062H394.281V167.688H404V169.281H396.266V170.5H404.109ZM404.047 175.344V178.969H396.125V179.812H404.422V181.328H394.172V177.578H402.078V176.812H394.156V175.344H404.047ZM412.969 167.422C416.234 167.422 418.125 168.281 418.141 169.844C418.125 171.422 416.234 172.281 412.969 172.281C409.688 172.281 407.781 171.422 407.781 169.844C407.781 168.281 409.688 167.422 412.969 167.422ZM412.969 168.875C410.875 168.875 409.859 169.219 409.875 169.844C409.859 170.547 410.875 170.812 412.969 170.812C415.078 170.812 416.078 170.547 416.078 169.844C416.078 169.219 415.078 168.875 412.969 168.875ZM419.453 172.953V174.531H406.484V172.953H419.453ZM417.875 175.359V178.984H409.953V179.844H418.25V181.344H408V177.594H415.906V176.812H407.984V175.359H417.875ZM427.922 168.219C429.844 168.219 431.273 169.805 431.562 172.359H434.031V167.219H436V181.469H434.031V173.953H431.578C431.367 176.688 429.906 178.359 427.922 178.359C425.766 178.359 424.219 176.406 424.234 173.281C424.219 170.188 425.766 168.219 427.922 168.219ZM427.922 170.016C426.859 170.016 426.125 171.172 426.141 173.281C426.125 175.406 426.859 176.547 427.922 176.547C429 176.547 429.703 175.406 429.703 173.281C429.703 171.172 429 170.016 427.922 170.016ZM450.156 175.5V177.016H439.641V175.5H443.906V174.391H445.906V175.5H450.156ZM444.875 177.438C447.484 177.438 449.062 178.172 449.062 179.438C449.062 180.75 447.484 181.453 444.875 181.453C442.25 181.453 440.672 180.75 440.688 179.438C440.672 178.172 442.25 177.438 444.875 177.438ZM444.875 178.812C443.531 178.828 442.812 179 442.812 179.438C442.812 179.906 443.531 180.094 444.875 180.094C446.188 180.094 446.906 179.906 446.906 179.438C446.906 179 446.188 178.828 444.875 178.812ZM441.797 167.797V169.344H440V172.328C440.633 172.305 441.242 172.234 441.938 172.094L442.062 173.656C440.859 173.891 439.969 173.906 438.75 173.906H438.062V167.797H441.797ZM446.438 167.797V169.344H444.422V172.344C445.43 172.32 446.062 172.258 446.797 172.094L446.938 173.656C445.953 173.891 445.094 173.906 443.219 173.906H442.453V167.797H446.438ZM449.938 167.219V174.797H447.984V171.484H446.047V169.969H447.984V167.219H449.938ZM463.984 167.219V181.438H462.109V167.219H463.984ZM460.953 167.531V180.812H459.094V174.281H456.766C455.953 175.906 454.633 177.312 452.609 178.484L451.484 177.078C454.352 175.375 455.617 173.305 455.891 170.516H452.266V168.906H457.875C457.867 170.258 457.727 171.531 457.391 172.703H459.094V167.531H460.953ZM477.141 168.25V169.141C477.141 170.125 477.141 171.547 476.812 173.312L474.859 173.125C475.109 171.758 475.172 170.727 475.188 169.875H469.828V168.25H477.141ZM473.609 171.531V174.25C475.023 174.195 476.477 174.086 477.812 173.891L477.922 175.328C474.969 175.875 471.625 175.922 469.156 175.938L468.984 174.344C469.781 174.344 470.68 174.344 471.625 174.312V171.531H473.609ZM480.625 167.219V171.547H482.344V173.219H480.625V177.859H478.578V167.219H480.625ZM481.062 179.594V181.188H471.078V176.906H473.078V179.594H481.062ZM494.922 167.219V181.469H492.938V167.219H494.922ZM490.516 168.406V173.891H485.828V176.5C487.992 176.492 489.836 176.367 491.922 176.031L492.094 177.641C489.75 178.047 487.641 178.141 485.047 178.141H483.766V172.312H488.484V170.016H483.75V168.406H490.516ZM508.047 167.219V172.781H510.141V174.422H508.047V181.438H506.078V167.219H508.047ZM505.109 169.344V170.938H496.75V169.344H499.969V167.438H501.969V169.344H505.109ZM500.969 171.734C503.047 171.734 504.594 173.141 504.594 175.125C504.594 177.109 503.047 178.516 500.969 178.516C498.875 178.516 497.328 177.109 497.328 175.125C497.328 173.141 498.875 171.734 500.969 171.734ZM500.969 173.344C499.969 173.359 499.234 174.031 499.234 175.125C499.234 176.234 499.969 176.891 500.969 176.875C501.969 176.891 502.688 176.234 502.688 175.125C502.688 174.031 501.969 173.359 500.969 173.344ZM516.188 170.438C516.188 173.047 517.375 175.672 519.781 176.688L518.609 178.281C516.984 177.547 515.859 176.133 515.219 174.375C514.57 176.289 513.406 177.836 511.672 178.625L510.469 176.969C512.953 175.922 514.156 173.203 514.172 170.438V168.312H516.188V170.438ZM522.562 167.219V181.469H520.547V167.219H522.562ZM537.719 172.609V174.234H535.703V181.406H533.703V167.219H535.703V172.609H537.719ZM526.922 168.578V176.281C528.742 176.258 530.695 176.086 532.75 175.672L532.953 177.328C530.578 177.812 528.266 177.938 526.172 177.938H524.938V168.578H526.922ZM551.328 178.141V179.781H538.312V178.141H541.219V174.656C540.117 174 539.453 172.992 539.453 171.734C539.453 169.438 541.703 167.906 544.797 167.906C547.875 167.906 550.141 169.438 550.156 171.734C550.148 172.961 549.5 173.961 548.438 174.625V178.141H551.328ZM544.797 169.484C542.766 169.484 541.422 170.297 541.422 171.734C541.422 173.125 542.766 173.984 544.797 173.984C546.812 173.984 548.172 173.125 548.188 171.734C548.172 170.297 546.812 169.484 544.797 169.484ZM543.188 178.141H546.422V175.375C545.914 175.477 545.367 175.531 544.797 175.531C544.227 175.531 543.688 175.484 543.188 175.375V178.141ZM554.625 176.438C554.641 174.5 555.156 173.891 556.094 173.312C556.766 172.875 557.281 172.391 557.281 171.672C557.281 170.891 556.672 170.375 555.922 170.375C555.188 170.375 554.516 170.859 554.484 171.781H552.266C552.312 169.578 553.938 168.531 555.938 168.531C558.109 168.531 559.656 169.672 559.656 171.594C559.656 172.875 559 173.703 557.969 174.312C557.094 174.844 556.703 175.344 556.688 176.438V176.609H554.625V176.438ZM555.703 180.141C554.969 180.141 554.375 179.547 554.391 178.828C554.375 178.109 554.969 177.531 555.703 177.531C556.391 177.531 557 178.109 557 178.828C557 179.547 556.391 180.141 555.703 180.141Z" fill="black"/>
<rect x="393" y="249" width="660" height="98" rx="30" fill="#F3F3F3"/>
<rect x="392.5" y="248.5" width="661" height="99" rx="30.5" stroke="#6E6E82" stroke-opacity="0.2"/>
<path d="M436.203 300.078H438.219L439.078 301.188C439.617 300.555 439.922 299.602 439.922 298.344C439.922 295.922 438.781 294.609 437.031 294.609C435.281 294.609 434.125 295.922 434.125 298.344C434.125 300.766 435.281 302.078 437.031 302.078C437.258 302.078 437.477 302.055 437.688 302.016L436.203 300.078ZM442.312 298.344C442.312 300.359 441.625 301.914 440.516 302.891L442.125 304.938H439.922L439.016 303.797C438.406 304.039 437.734 304.156 437.031 304.156C434.016 304.156 431.734 302.016 431.734 298.344C431.734 294.656 434.016 292.531 437.031 292.531C440.016 292.531 442.312 294.656 442.312 298.344ZM444.609 304.141C443.875 304.141 443.281 303.547 443.297 302.828C443.281 302.109 443.875 301.531 444.609 301.531C445.297 301.531 445.906 302.109 445.906 302.828C445.906 303.547 445.297 304.141 444.609 304.141ZM455.094 291.812C457.266 291.797 458.844 293.031 458.844 294.828C458.844 296.609 457.266 297.859 455.094 297.844C452.922 297.859 451.344 296.609 451.359 294.828C451.344 293.031 452.922 291.797 455.094 291.812ZM455.094 293.406C454.031 293.406 453.281 293.922 453.281 294.828C453.281 295.719 454.031 296.234 455.094 296.219C456.188 296.234 456.953 295.719 456.953 294.828C456.953 293.922 456.188 293.406 455.094 293.406ZM462.438 291.234V305.438H460.469V291.234H462.438ZM450.484 298.719C453 298.719 456.578 298.656 459.609 298.203L459.734 299.672C458.562 299.906 457.359 300.055 456.172 300.141V305.016H454.188V300.266C452.938 300.32 451.758 300.328 450.734 300.344L450.484 298.719ZM467.906 291.438V292.422H473.609V291.438H475.594V296.203H471.719V297.125H477.25V298.688H464.281V297.125H469.75V296.203H465.938V291.438H467.906ZM467.906 294.719H473.609V293.859H467.906V294.719ZM475.672 299.438V303.031H467.75V303.844H476.047V305.344H465.797V301.656H473.703V300.891H465.781V299.438H475.672ZM490 291.234V301.703H488.016V291.234H490ZM490.375 303.594V305.188H480.438V300.828H482.422V303.594H490.375ZM485.438 292.156V296.688H480.812V298.266C483.352 298.258 484.977 298.188 486.812 297.828L487.031 299.422C484.969 299.812 483.125 299.891 480.109 299.891H478.859V295.219H483.453V293.75H478.844V292.156H485.438ZM496.547 292.172C498.797 292.156 500.484 293.625 500.484 295.656C500.484 297.703 498.797 299.156 496.547 299.156C494.297 299.156 492.594 297.703 492.594 295.656C492.594 293.625 494.297 292.156 496.547 292.172ZM496.547 293.891C495.422 293.891 494.562 294.547 494.578 295.656C494.562 296.781 495.422 297.422 496.547 297.422C497.672 297.422 498.531 296.781 498.547 295.656C498.531 294.547 497.688 293.891 496.547 293.891ZM503.891 291.219V305.469H501.906V291.219H503.891ZM492 300.938C494.531 300.953 498.047 300.906 501.094 300.484L501.25 301.922C498.094 302.531 494.719 302.562 492.234 302.562L492 300.938ZM522.422 299.062V300.656H516.891V305.438H514.922V300.656H509.453V299.062H522.422ZM521.266 291.969V293.531H517.125C517.32 294.922 518.891 296.32 521.812 296.672L521.094 298.234C518.594 297.898 516.805 296.828 515.953 295.359C515.078 296.828 513.305 297.898 510.828 298.234L510.094 296.672C512.969 296.32 514.555 294.922 514.781 293.531H510.625V291.969H521.266ZM536.297 302.141V303.781H523.281V302.141H526.188V298.656C525.086 298 524.422 296.992 524.422 295.734C524.422 293.438 526.672 291.906 529.766 291.906C532.844 291.906 535.109 293.438 535.125 295.734C535.117 296.961 534.469 297.961 533.406 298.625V302.141H536.297ZM529.766 293.484C527.734 293.484 526.391 294.297 526.391 295.734C526.391 297.125 527.734 297.984 529.766 297.984C531.781 297.984 533.141 297.125 533.156 295.734C533.141 294.297 531.781 293.484 529.766 293.484ZM528.156 302.141H531.391V299.375C530.883 299.477 530.336 299.531 529.766 299.531C529.195 299.531 528.656 299.484 528.156 299.375V302.141ZM553.094 291.219V305.438H551.203V291.219H553.094ZM550.188 291.453V304.781H548.312V297.703H546.438V296.094H548.312V291.453H550.188ZM545.297 295.031C545.297 297.391 546.031 299.781 548.109 300.969L546.938 302.438C545.672 301.688 544.836 300.414 544.359 298.891C543.867 300.547 543.008 301.953 541.703 302.75L540.5 301.281C542.594 300 543.375 297.438 543.375 295.031V294.266H541.047V292.672H547.453V294.266H545.297V295.031ZM567.594 297.875V299.453H562.094V300.672H566.047V305.281H556.125V300.672H560.109V299.453H554.625V297.875H567.594ZM566.438 291.609V293.203H564.578V295.375H566.344V296.969H555.859V295.375H557.609V293.203H555.766V291.609H566.438ZM558.094 302.219V303.688H564.094V302.219H558.094ZM559.609 295.375H562.578V293.203H559.609V295.375ZM585.109 297.672V299.281H579.609V300.328C582.086 300.516 583.547 301.406 583.562 302.875C583.547 304.516 581.688 305.438 578.609 305.438C575.484 305.438 573.625 304.516 573.625 302.875C573.625 301.398 575.102 300.508 577.625 300.328V299.281H572.141V297.672H585.109ZM578.609 301.797C576.641 301.812 575.641 302.156 575.656 302.875C575.641 303.562 576.641 303.938 578.609 303.938C580.531 303.938 581.547 303.562 581.562 302.875C581.547 302.156 580.531 301.812 578.609 301.797ZM583.938 291.828V293.391H580.078C580.414 294.391 581.859 295.352 584.562 295.578L583.859 297.141C581.18 296.883 579.367 295.867 578.609 294.484C577.859 295.867 576.078 296.883 573.375 297.141L572.719 295.578C575.352 295.352 576.805 294.383 577.172 293.391H573.328V291.828H583.938ZM600.875 291.219V296.781H602.969V298.422H600.875V305.438H598.906V291.219H600.875ZM597.938 293.344V294.938H589.578V293.344H592.797V291.438H594.797V293.344H597.938ZM593.797 295.734C595.875 295.734 597.422 297.141 597.422 299.125C597.422 301.109 595.875 302.516 593.797 302.516C591.703 302.516 590.156 301.109 590.156 299.125C590.156 297.141 591.703 295.734 593.797 295.734ZM593.797 297.344C592.797 297.359 592.062 298.031 592.062 299.125C592.062 300.234 592.797 300.891 593.797 300.875C594.797 300.891 595.516 300.234 595.516 299.125C595.516 298.031 594.797 297.359 593.797 297.344ZM616.719 296.609V298.234H614.703V305.406H612.703V291.219H614.703V296.609H616.719ZM605.922 292.578V300.281C607.742 300.258 609.695 300.086 611.75 299.672L611.953 301.328C609.578 301.812 607.266 301.938 605.172 301.938H603.938V292.578H605.922ZM629.219 291.234V301.453H627.219V291.234H629.219ZM629.594 303.594V305.188H619.688V300.422H621.703V303.594H629.594ZM621.422 292.141C623.609 292.141 625.312 293.641 625.312 295.719C625.312 297.844 623.609 299.328 621.422 299.328C619.234 299.328 617.531 297.844 617.531 295.719C617.531 293.641 619.234 292.141 621.422 292.141ZM621.422 293.875C620.312 293.859 619.469 294.562 619.484 295.719C619.469 296.906 620.312 297.594 621.422 297.594C622.5 297.594 623.344 296.906 623.344 295.719C623.344 294.562 622.5 293.859 621.422 293.875ZM646.297 291.734V292.969C646.297 294.086 646.297 295.273 646.016 296.719H647.766V298.297H634.859V296.719H644.031C644.109 296.289 644.164 295.891 644.219 295.516L636.25 295.828L636.031 294.297L644.312 294.125V293.297H636.422V291.734H646.297ZM646.359 299.141V302.875H638.266V303.75H646.859V305.281H636.281V301.438H644.375V300.656H636.266V299.141H646.359ZM659.875 291.219V296.594H661.969V298.234H659.875V305.469H657.906V291.219H659.875ZM655.812 292.406V297.922H651.234V300.5C653.305 300.492 655.016 300.398 656.906 300.078L657.078 301.672C654.906 302.062 652.953 302.156 650.453 302.156H649.25V296.344H653.828V294.016H649.234V292.406H655.812ZM675.484 299.172V300.797H669.922V305.453H667.953V300.797H662.469V299.172H675.484ZM668.938 291.688C671.984 291.688 674.125 292.953 674.125 294.922C674.125 296.859 671.984 298.094 668.938 298.094C665.891 298.094 663.766 296.859 663.781 294.922C663.766 292.953 665.891 291.688 668.938 291.688ZM668.938 293.281C667.031 293.281 665.812 293.875 665.828 294.922C665.812 295.938 667.031 296.516 668.938 296.516C670.859 296.516 672.062 295.938 672.062 294.922C672.062 293.875 670.859 293.281 668.938 293.281ZM687.906 297.797V299.391H677.844V292.406H687.797V294.016H679.812V297.797H687.906ZM689.328 302.062V303.703H676.312V302.062H689.328ZM705.781 291.219V305.438H703.766V291.219H705.781ZM701.516 292.703C701.516 297.016 700 300.594 694.922 303L693.875 301.406C697.547 299.672 699.164 297.422 699.484 294.266H694.641V292.703H701.516ZM718.938 291.234V295.234H720.859V296.875H718.938V301.703H716.938V291.234H718.938ZM719.453 303.594V305.188H709.719V300.625H711.703V303.594H719.453ZM710.062 292.234V294.297H712.969V292.234H714.969V299.438H708.078V292.234H710.062ZM710.062 297.875H712.969V295.828H710.062V297.875ZM738.188 302.141V303.734H725.172V302.141H730.609V298.922H732.594V302.141H738.188ZM732.656 293.047C732.656 295.078 734.484 297.219 737.734 297.719L736.891 299.375C734.391 298.922 732.531 297.586 731.594 295.812C730.656 297.578 728.812 298.93 726.328 299.375L725.484 297.719C728.703 297.219 730.516 295.062 730.531 293.047V292.031H732.656V293.047ZM752.016 302.125V303.781H739V302.125H752.016ZM750.922 292.469V294.062H748.922V298.375H750.859V299.938H740.078V298.375H741.984V294.062H740.016V292.469H750.922ZM743.984 298.375H746.953V294.062H743.984V298.375ZM764.422 298.562V300.141H754.359V292.266H764.312V293.875H756.391V295.375H763.984V296.938H756.391V298.562H764.422ZM765.844 302.156V303.781H752.828V302.156H765.844ZM770.234 292.016C772.047 292.016 773.375 293.141 773.391 294.719C773.375 296.297 772.047 297.406 770.234 297.406C768.391 297.406 767.047 296.297 767.047 294.719C767.047 293.141 768.391 292.016 770.234 292.016ZM770.234 293.484C769.375 293.484 768.812 293.953 768.812 294.719C768.812 295.484 769.375 295.922 770.234 295.938C771.047 295.922 771.609 295.484 771.625 294.719C771.609 293.953 771.047 293.484 770.234 293.484ZM779.156 291.219V305.438H777.281V291.219H779.156ZM776.281 291.453V304.781H774.406V301.875H772.141V300.359H774.406V291.453H776.281ZM766.453 298.156C768.359 298.172 771.438 298.156 773.688 297.812L773.844 299.297C772.992 299.461 772.055 299.57 771.125 299.641V304.312H769.25V299.75C768.297 299.781 767.398 299.789 766.672 299.781L766.453 298.156ZM784.406 292.219C786.328 292.219 787.758 293.805 788.047 296.359H790.516V291.219H792.484V305.469H790.516V297.953H788.062C787.852 300.688 786.391 302.359 784.406 302.359C782.25 302.359 780.703 300.406 780.719 297.281C780.703 294.188 782.25 292.219 784.406 292.219ZM784.406 294.016C783.344 294.016 782.609 295.172 782.625 297.281C782.609 299.406 783.344 300.547 784.406 300.547C785.484 300.547 786.188 299.406 786.188 297.281C786.188 295.172 785.484 294.016 784.406 294.016ZM805.453 295.5V297.031H810.969V298.609H798V297.031H803.484V295.5H805.453ZM805.484 291.641C805.484 293.156 807.016 294.516 810.281 294.812L809.594 296.328C807.156 296.031 805.367 295.18 804.453 293.875C803.547 295.18 801.758 296.031 799.312 296.328L798.625 294.812C801.891 294.516 803.453 293.156 803.453 291.641V291.344H805.484V291.641ZM809.391 299.328V303H801.469V303.844H809.766V305.344H799.516V301.594H807.422V300.844H799.5V299.328H809.391ZM823.328 291.656V295.891H815.375V297.078H823.656V298.672H813.359V294.391H821.281V293.266H813.312V291.656H823.328ZM824.828 299.734V301.328H819.297V305.469H817.297V301.328H811.812V299.734H824.828ZM830.984 293.672C830.984 295.641 831.953 297.594 834.203 298.422L833.094 299.969C831.602 299.383 830.578 298.266 830 296.859C829.375 298.359 828.273 299.531 826.656 300.141L825.594 298.578C827.922 297.75 828.969 295.75 828.969 293.672V292.031H830.984V293.672ZM837.641 291.234V301.781H835.656V297.438H833.219V295.828H835.656V294.688H833.219V293.078H835.656V291.234H837.641ZM837.938 303.594V305.188H828.172V300.766H830.188V303.594H837.938ZM851.812 291.219V305.438H849.906V291.219H851.812ZM848.844 291.422V304.781H846.969V298.062H845.828C845.641 300.859 844.453 302.547 842.703 302.547C840.828 302.547 839.609 300.578 839.609 297.375C839.609 294.188 840.828 292.234 842.703 292.234C844.414 292.234 845.586 293.828 845.812 296.484H846.969V291.422H848.844ZM842.703 294.109C841.906 294.109 841.438 295.203 841.453 297.375C841.438 299.562 841.906 300.641 842.703 300.625C843.516 300.641 844 299.562 844 297.375C844 295.203 843.516 294.109 842.703 294.109ZM869.297 291.219V305.438H867.406V298.297H866.031V304.75H864.203V291.453H866.031V296.703H867.406V291.219H869.297ZM862.703 292.859V294.469H859.406V300.531C860.781 300.523 862 300.453 863.375 300.203L863.516 301.828C861.781 302.156 860.266 302.203 858.391 302.219H857.406V292.859H862.703ZM877.688 293.391V294.969H870.812V293.391H873.281V291.609H875.25V293.391H877.688ZM874.281 295.609C876.094 295.609 877.391 297.016 877.406 298.984C877.391 300.969 876.094 302.375 874.281 302.375C872.469 302.375 871.141 300.969 871.141 298.984C871.141 297.016 872.469 295.609 874.281 295.609ZM874.281 297.266C873.453 297.266 872.891 297.906 872.891 298.984C872.891 300.062 873.453 300.688 874.281 300.688C875.078 300.688 875.641 300.062 875.656 298.984C875.641 297.906 875.078 297.266 874.281 297.266ZM883.125 291.219V305.438H881.234V298.594H880.078V304.828H878.219V291.5H880.078V297H881.234V291.219H883.125ZM900.25 291.219V305.469H898.234V291.219H900.25ZM892.531 292.219C894.672 292.219 896.266 294.188 896.266 297.281C896.266 300.406 894.672 302.359 892.531 302.359C890.344 302.359 888.75 300.406 888.766 297.281C888.75 294.188 890.344 292.219 892.531 292.219ZM892.531 294.016C891.422 294.016 890.688 295.172 890.688 297.281C890.688 299.406 891.422 300.547 892.531 300.547C893.609 300.547 894.344 299.406 894.344 297.281C894.344 295.172 893.609 294.016 892.531 294.016ZM909.031 293.391V294.969H902.156V293.391H904.625V291.609H906.594V293.391H909.031ZM905.625 295.609C907.438 295.609 908.734 297.016 908.75 298.984C908.734 300.969 907.438 302.375 905.625 302.375C903.812 302.375 902.484 300.969 902.484 298.984C902.484 297.016 903.812 295.609 905.625 295.609ZM905.625 297.266C904.797 297.266 904.234 297.906 904.234 298.984C904.234 300.062 904.797 300.688 905.625 300.688C906.422 300.688 906.984 300.062 907 298.984C906.984 297.906 906.422 297.266 905.625 297.266ZM914.469 291.219V305.438H912.578V298.594H911.422V304.828H909.562V291.5H911.422V297H912.578V291.219H914.469ZM927.219 291.219V296.781H929.312V298.422H927.219V305.438H925.25V291.219H927.219ZM924.281 293.344V294.938H915.922V293.344H919.141V291.438H921.141V293.344H924.281ZM920.141 295.734C922.219 295.734 923.766 297.141 923.766 299.125C923.766 301.109 922.219 302.516 920.141 302.516C918.047 302.516 916.5 301.109 916.5 299.125C916.5 297.141 918.047 295.734 920.141 295.734ZM920.141 297.344C919.141 297.359 918.406 298.031 918.406 299.125C918.406 300.234 919.141 300.891 920.141 300.875C921.141 300.891 921.859 300.234 921.859 299.125C921.859 298.031 921.141 297.359 920.141 297.344ZM941.547 292.453V293.797C941.547 295.578 941.547 297.578 940.969 300.594L938.969 300.391C939.508 297.703 939.531 295.703 939.547 294.031H931.172V292.453H941.547ZM942.797 302.078V303.703H929.828V302.078H934.469V297.188H936.453V302.078H942.797ZM959.672 291.219V305.438H957.797V291.219H959.672ZM956.703 291.531V304.812H954.812V300.125H952.797V298.516H954.812V296.578H953.062C952.398 298.922 950.961 300.906 948.297 302.484L947.125 301.078C950.008 299.375 951.273 297.305 951.547 294.516H947.953V292.906H953.531C953.531 293.617 953.484 294.305 953.406 294.969H954.812V291.531H956.703ZM973.078 291.234V301.609H971.078V291.234H973.078ZM973.453 303.594V305.188H963.547V300.609H965.562V303.594H973.453ZM966.625 293.391C966.609 295.266 967.609 297.109 969.953 297.859L968.938 299.422C967.336 298.891 966.227 297.828 965.594 296.469C964.961 297.93 963.82 299.102 962.156 299.672L961.125 298.094C963.516 297.297 964.547 295.312 964.547 293.391V292.016H966.625V293.391ZM986.219 291.219V296.672H988.234V298.312H986.219V305.406H984.219V291.219H986.219ZM982.422 292.672C982.406 296.922 980.75 300.609 975.969 302.953L974.844 301.422C978.211 299.734 980.016 297.469 980.391 294.297H975.656V292.672H982.422ZM1001.84 302.141V303.781H988.828V302.141H991.734V298.656C990.633 298 989.969 296.992 989.969 295.734C989.969 293.438 992.219 291.906 995.312 291.906C998.391 291.906 1000.66 293.438 1000.67 295.734C1000.66 296.961 1000.02 297.961 998.953 298.625V302.141H1001.84ZM995.312 293.484C993.281 293.484 991.938 294.297 991.938 295.734C991.938 297.125 993.281 297.984 995.312 297.984C997.328 297.984 998.688 297.125 998.703 295.734C998.688 294.297 997.328 293.484 995.312 293.484ZM993.703 302.141H996.938V299.375C996.43 299.477 995.883 299.531 995.312 299.531C994.742 299.531 994.203 299.484 993.703 299.375V302.141ZM1005.14 300.438C1005.16 298.5 1005.67 297.891 1006.61 297.312C1007.28 296.875 1007.8 296.391 1007.8 295.672C1007.8 294.891 1007.19 294.375 1006.44 294.375C1005.7 294.375 1005.03 294.859 1005 295.781H1002.78C1002.83 293.578 1004.45 292.531 1006.45 292.531C1008.62 292.531 1010.17 293.672 1010.17 295.594C1010.17 296.875 1009.52 297.703 1008.48 298.312C1007.61 298.844 1007.22 299.344 1007.2 300.438V300.609H1005.14V300.438ZM1006.22 304.141C1005.48 304.141 1004.89 303.547 1004.91 302.828C1004.89 302.109 1005.48 301.531 1006.22 301.531C1006.91 301.531 1007.52 302.109 1007.52 302.828C1007.52 303.547 1006.91 304.141 1006.22 304.141Z" fill="black"/>
<rect x="629" y="373" width="654" height="98" rx="30" fill="#F3F3F3"/>
<rect x="628.5" y="372.5" width="655" height="99" rx="30.5" stroke="#6E6E82" stroke-opacity="0.2"/>
<path d="M670.203 411.078H672.219L673.078 412.188C673.617 411.555 673.922 410.602 673.922 409.344C673.922 406.922 672.781 405.609 671.031 405.609C669.281 405.609 668.125 406.922 668.125 409.344C668.125 411.766 669.281 413.078 671.031 413.078C671.258 413.078 671.477 413.055 671.688 413.016L670.203 411.078ZM676.312 409.344C676.312 411.359 675.625 412.914 674.516 413.891L676.125 415.938H673.922L673.016 414.797C672.406 415.039 671.734 415.156 671.031 415.156C668.016 415.156 665.734 413.016 665.734 409.344C665.734 405.656 668.016 403.531 671.031 403.531C674.016 403.531 676.312 405.656 676.312 409.344ZM678.609 415.141C677.875 415.141 677.281 414.547 677.297 413.828C677.281 413.109 677.875 412.531 678.609 412.531C679.297 412.531 679.906 413.109 679.906 413.828C679.906 414.547 679.297 415.141 678.609 415.141ZM689.094 402.812C691.266 402.797 692.844 404.031 692.844 405.828C692.844 407.609 691.266 408.859 689.094 408.844C686.922 408.859 685.344 407.609 685.359 405.828C685.344 404.031 686.922 402.797 689.094 402.812ZM689.094 404.406C688.031 404.406 687.281 404.922 687.281 405.828C687.281 406.719 688.031 407.234 689.094 407.219C690.188 407.234 690.953 406.719 690.953 405.828C690.953 404.922 690.188 404.406 689.094 404.406ZM696.438 402.234V416.438H694.469V402.234H696.438ZM684.484 409.719C687 409.719 690.578 409.656 693.609 409.203L693.734 410.672C692.562 410.906 691.359 411.055 690.172 411.141V416.016H688.188V411.266C686.938 411.32 685.758 411.328 684.734 411.344L684.484 409.719ZM701.906 402.438V403.422H707.609V402.438H709.594V407.203H705.719V408.125H711.25V409.688H698.281V408.125H703.75V407.203H699.938V402.438H701.906ZM701.906 405.719H707.609V404.859H701.906V405.719ZM709.672 410.438V414.031H701.75V414.844H710.047V416.344H699.797V412.656H707.703V411.891H699.781V410.438H709.672ZM724 402.234V412.703H722.016V402.234H724ZM724.375 414.594V416.188H714.438V411.828H716.422V414.594H724.375ZM719.438 403.156V407.688H714.812V409.266C717.352 409.258 718.977 409.188 720.812 408.828L721.031 410.422C718.969 410.812 717.125 410.891 714.109 410.891H712.859V406.219H717.453V404.75H712.844V403.156H719.438ZM738.266 402.219V416.438H736.359V402.219H738.266ZM735.297 402.422V415.781H733.422V409.062H732.281C732.094 411.859 730.906 413.547 729.156 413.547C727.281 413.547 726.062 411.578 726.062 408.375C726.062 405.188 727.281 403.234 729.156 403.234C730.867 403.234 732.039 404.828 732.266 407.484H733.422V402.422H735.297ZM729.156 405.109C728.359 405.109 727.891 406.203 727.906 408.375C727.891 410.562 728.359 411.641 729.156 411.625C729.969 411.641 730.453 410.562 730.453 408.375C730.453 406.203 729.969 405.109 729.156 405.109ZM745.141 405.438C745.141 408.109 746.219 410.703 748.594 411.734L747.375 413.328C745.797 412.555 744.742 411.141 744.156 409.391C743.531 411.25 742.438 412.773 740.812 413.578L739.562 411.953C742 410.859 743.109 408.109 743.125 405.438V403.312H745.141V405.438ZM751.766 402.219V416.469H749.797V408.297H747V406.688H749.797V402.219H751.766ZM765.141 406.094V407.656H755.203V402.719H757.188V406.094H765.141ZM766.594 409.188V410.75H753.578V409.188H766.594ZM765.234 414.531V416.125H755.078V411.906H757.078V414.531H765.234ZM782.328 402.219V407.5H784.422V409.125H782.328V416.469H780.328V402.219H782.328ZM778.344 403.531V405.141H773.656V411.375C775.719 411.352 777.422 411.258 779.312 410.922L779.531 412.594C777.328 412.969 775.391 413.031 772.875 413.016H771.672V403.531H778.344ZM798.062 403.984V405.609H796.219V407.078H798.062V408.719H796.219V410.531H794.219V402.219H796.219V403.984H798.062ZM788.938 403C791.141 402.984 792.812 404.422 792.812 406.438C792.812 408.453 791.141 409.875 788.938 409.875C786.719 409.875 785.031 408.453 785.031 406.438C785.031 404.422 786.719 402.984 788.938 403ZM788.938 404.672C787.812 404.656 786.984 405.344 787 406.438C786.984 407.547 787.812 408.203 788.938 408.203C790.031 408.203 790.859 407.547 790.875 406.438C790.859 405.344 790.031 404.656 788.938 404.672ZM791.562 410.812C794.484 410.812 796.359 411.875 796.359 413.641C796.359 415.391 794.484 416.438 791.562 416.438C788.578 416.438 786.688 415.391 786.688 413.641C786.688 411.875 788.578 410.812 791.562 410.812ZM791.562 412.391C789.688 412.391 788.672 412.812 788.688 413.641C788.672 414.469 789.688 414.859 791.562 414.859C793.406 414.859 794.391 414.469 794.391 413.641C794.391 412.812 793.406 412.391 791.562 412.391ZM810.047 402.234V406.594H811.969V408.219H810.047V412.844H808.047V402.234H810.047ZM807.203 403.719V405.297H798.766V403.719H802V402.203H803.984V403.719H807.203ZM802.984 405.797C805.047 405.797 806.484 406.906 806.484 408.547C806.484 410.188 805.047 411.266 802.984 411.266C800.906 411.266 799.453 410.188 799.453 408.547C799.453 406.906 800.906 405.797 802.984 405.797ZM802.984 407.312C802.031 407.328 801.391 407.766 801.406 408.547C801.391 409.328 802.031 409.75 802.984 409.75C803.938 409.75 804.594 409.328 804.594 408.547C804.594 407.766 803.938 407.328 802.984 407.312ZM810.562 414.594V416.188H800.828V412.031H802.812V414.594H810.562ZM828 403.453V404.797C828 406.578 828 408.578 827.422 411.594L825.422 411.391C825.961 408.703 825.984 406.703 826 405.031H817.625V403.453H828ZM829.25 413.078V414.703H816.281V413.078H820.922V408.188H822.906V413.078H829.25ZM842.328 402.234V410.562H840.438V407.125H839.156V410.5H837.281V402.484H839.156V405.5H840.438V402.234H842.328ZM842.328 411.109V416.438H840.344V412.719H832.406V411.109H842.328ZM836.312 403.203C836.312 406.781 834.594 409.188 830.891 410.656L829.953 409.172C832.633 408.188 833.977 406.719 834.281 404.797H830.641V403.203H836.312ZM854.875 403.141V409.375H848.047V403.141H854.875ZM850.016 404.719V407.797H852.906V404.719H850.016ZM858.906 402.219V405.312H860.828V406.938H858.906V410.188H856.906V402.219H858.906ZM859.078 410.859V412.438H855.438C855.773 413.5 857.18 414.555 859.703 414.891L859 416.406C856.719 416.102 855.109 415.188 854.297 413.969C853.477 415.188 851.875 416.086 849.609 416.375L848.891 414.859C851.453 414.547 852.828 413.531 853.156 412.438H849.5V410.859H859.078ZM874.422 409.047V410.625H868.906V411.719H872.875V416.281H862.953V411.719H866.938V410.625H861.453V409.047H874.422ZM868.906 402.219V403.438H873.172V405H869.078C869.32 405.984 870.773 406.867 873.844 407.047L873.266 408.516C870.633 408.336 868.812 407.617 867.922 406.5C867.023 407.617 865.203 408.336 862.578 408.516L862 407.047C865.094 406.867 866.516 405.984 866.781 405H862.703V403.438H866.938V402.219H868.906ZM864.922 413.297V414.688H870.922V413.297H864.922ZM883.219 403.531V405.109H875.312V403.531H878.375V402.094H880.359V403.531H883.219ZM879.344 405.578C881.297 405.594 882.703 406.672 882.719 408.25C882.703 409.844 881.297 410.906 879.344 410.891C877.375 410.906 876 409.844 876.016 408.25C876 406.672 877.375 405.594 879.344 405.578ZM879.344 407.062C878.438 407.062 877.859 407.484 877.875 408.25C877.859 409.016 878.438 409.422 879.344 409.422C880.234 409.422 880.859 409.016 880.859 408.25C880.859 407.484 880.234 407.062 879.344 407.062ZM887.266 402.219V411.281H885.281V409.781H883.344V408.188H885.281V406.938H883.375V405.344H885.281V402.219H887.266ZM882.438 411.453C885.453 411.453 887.344 412.375 887.344 413.953C887.344 415.5 885.453 416.438 882.438 416.438C879.406 416.438 877.531 415.5 877.531 413.953C877.531 412.375 879.406 411.453 882.438 411.453ZM882.438 412.953C880.625 412.969 879.625 413.281 879.625 413.953C879.625 414.594 880.625 414.938 882.438 414.938C884.219 414.938 885.203 414.594 885.203 413.953C885.203 413.281 884.219 412.969 882.438 412.953ZM900.25 406.5V408.031H905.766V409.609H892.797V408.031H898.281V406.5H900.25ZM900.281 402.641C900.281 404.156 901.812 405.516 905.078 405.812L904.391 407.328C901.953 407.031 900.164 406.18 899.25 404.875C898.344 406.18 896.555 407.031 894.109 407.328L893.422 405.812C896.688 405.516 898.25 404.156 898.25 402.641V402.344H900.281V402.641ZM904.188 410.328V414H896.266V414.844H904.562V416.344H894.312V412.594H902.219V411.844H894.297V410.328H904.188ZM918.125 402.656V406.891H910.172V408.078H918.453V409.672H908.156V405.391H916.078V404.266H908.109V402.656H918.125ZM919.625 410.734V412.328H914.094V416.469H912.094V412.328H906.609V410.734H919.625ZM925.781 404.672C925.781 406.641 926.75 408.594 929 409.422L927.891 410.969C926.398 410.383 925.375 409.266 924.797 407.859C924.172 409.359 923.07 410.531 921.453 411.141L920.391 409.578C922.719 408.75 923.766 406.75 923.766 404.672V403.031H925.781V404.672ZM932.438 402.234V412.781H930.453V408.438H928.016V406.828H930.453V405.688H928.016V404.078H930.453V402.234H932.438ZM932.734 414.594V416.188H922.969V411.766H924.984V414.594H932.734ZM940.766 402.422C944.031 402.422 945.922 403.281 945.938 404.844C945.922 406.422 944.031 407.281 940.766 407.281C937.484 407.281 935.578 406.422 935.578 404.844C935.578 403.281 937.484 402.422 940.766 402.422ZM940.766 403.875C938.672 403.875 937.656 404.219 937.672 404.844C937.656 405.547 938.672 405.812 940.766 405.812C942.875 405.812 943.875 405.547 943.875 404.844C943.875 404.219 942.875 403.875 940.766 403.875ZM947.25 407.953V409.531H934.281V407.953H947.25ZM945.672 410.359V413.984H937.75V414.844H946.047V416.344H935.797V412.594H943.703V411.812H935.781V410.359H945.672ZM964.094 402.219V416.438H962.203V402.219H964.094ZM961.188 402.453V415.781H959.312V408.703H957.438V407.094H959.312V402.453H961.188ZM956.297 406.031C956.297 408.391 957.031 410.781 959.109 411.969L957.938 413.438C956.672 412.688 955.836 411.414 955.359 409.891C954.867 411.547 954.008 412.953 952.703 413.75L951.5 412.281C953.594 411 954.375 408.438 954.375 406.031V405.266H952.047V403.672H958.453V405.266H956.297V406.031ZM972.031 411.078C975.141 411.078 977.094 412.062 977.109 413.766C977.094 415.438 975.141 416.438 972.031 416.438C968.953 416.438 966.969 415.438 966.969 413.766C966.969 412.062 968.953 411.078 972.031 411.078ZM972.031 412.562C970.078 412.562 968.953 412.969 968.953 413.766C968.953 414.531 970.078 414.922 972.031 414.922C973.984 414.922 975.125 414.531 975.125 413.766C975.125 412.969 973.984 412.562 972.031 412.562ZM977.031 402.859V404.016C977.031 405.141 977.031 406.359 976.625 407.828L974.672 407.641C974.984 406.352 975.023 405.391 975.047 404.422H967.109V402.859H977.031ZM978.562 408.562V410.172H965.656V408.562H970.5V406.078H972.469V408.562H978.562ZM990.734 402.219V405.641H992.656V407.297H990.734V410.547H988.734V402.219H990.734ZM983.406 411.094V412.172H988.734V411.094H990.734V416.281H981.422V411.094H983.406ZM983.406 414.719H988.734V413.703H983.406V414.719ZM987.891 403.469V405.031H979.453V403.469H982.688V402.125H984.672V403.469H987.891ZM983.672 405.438C985.734 405.438 987.172 406.438 987.172 407.953C987.172 409.469 985.734 410.469 983.672 410.469C981.578 410.469 980.141 409.469 980.141 407.953C980.141 406.438 981.578 405.438 983.672 405.438ZM983.672 406.906C982.719 406.891 982.078 407.281 982.094 407.953C982.078 408.641 982.719 409.016 983.672 409.016C984.625 409.016 985.281 408.641 985.281 407.953C985.281 407.281 984.625 406.891 983.672 406.906ZM1005.23 402.219V416.438H1003.25V402.219H1005.23ZM996.016 403.578V411.219C997.938 411.195 1000 411.016 1002.09 410.609L1002.34 412.25C999.844 412.766 997.5 412.938 995.297 412.922H994.047V403.578H996.016ZM1018.33 402.219V407.5H1020.42V409.125H1018.33V416.469H1016.33V402.219H1018.33ZM1014.34 403.531V405.141H1009.66V411.375C1011.72 411.352 1013.42 411.258 1015.31 410.922L1015.53 412.594C1013.33 412.969 1011.39 413.031 1008.88 413.016H1007.67V403.531H1014.34ZM1022.78 415.141C1022.05 415.141 1021.45 414.547 1021.47 413.828C1021.45 413.109 1022.05 412.531 1022.78 412.531C1023.47 412.531 1024.08 413.109 1024.08 413.828C1024.08 414.547 1023.47 415.141 1022.78 415.141ZM677.141 428.453V429.797C677.141 431.578 677.141 433.578 676.562 436.594L674.562 436.391C675.102 433.703 675.125 431.703 675.141 430.031H666.766V428.453H677.141ZM678.391 438.078V439.703H665.422V438.078H670.062V433.188H672.047V438.078H678.391ZM691.469 427.234V435.562H689.578V432.125H688.297V435.5H686.422V427.484H688.297V430.5H689.578V427.234H691.469ZM691.469 436.109V441.438H689.484V437.719H681.547V436.109H691.469ZM685.453 428.203C685.453 431.781 683.734 434.188 680.031 435.656L679.094 434.172C681.773 433.188 683.117 431.719 683.422 429.797H679.781V428.203H685.453ZM697.688 428.172C699.938 428.156 701.625 429.625 701.625 431.656C701.625 433.703 699.938 435.156 697.688 435.156C695.438 435.156 693.734 433.703 693.734 431.656C693.734 429.625 695.438 428.156 697.688 428.172ZM697.688 429.891C696.562 429.891 695.703 430.547 695.719 431.656C695.703 432.781 696.562 433.422 697.688 433.422C698.812 433.422 699.672 432.781 699.688 431.656C699.672 430.547 698.828 429.891 697.688 429.891ZM705.031 427.219V441.469H703.047V427.219H705.031ZM693.141 436.938C695.672 436.953 699.188 436.906 702.234 436.484L702.391 437.922C699.234 438.531 695.859 438.562 693.375 438.562L693.141 436.938ZM723.609 438.141V439.781H710.594V438.141H713.5V434.656C712.398 434 711.734 432.992 711.734 431.734C711.734 429.438 713.984 427.906 717.078 427.906C720.156 427.906 722.422 429.438 722.438 431.734C722.43 432.961 721.781 433.961 720.719 434.625V438.141H723.609ZM717.078 429.484C715.047 429.484 713.703 430.297 713.703 431.734C713.703 433.125 715.047 433.984 717.078 433.984C719.094 433.984 720.453 433.125 720.469 431.734C720.453 430.297 719.094 429.484 717.078 429.484ZM715.469 438.141H718.703V435.375C718.195 435.477 717.648 435.531 717.078 435.531C716.508 435.531 715.969 435.484 715.469 435.375V438.141ZM735.875 428.047V429.328C735.875 430.656 735.875 432.109 735.516 434.094H737.391V435.703H731.844V441.453H729.844V435.703H724.422V434.094H733.5C733.859 432.258 733.891 430.867 733.891 429.641H725.906V428.047H735.875ZM743.484 430.438C743.469 432.984 744.562 435.562 746.844 436.656L745.641 438.25C744.117 437.5 743.094 436.094 742.5 434.375C741.883 436.219 740.781 437.727 739.172 438.516L737.938 436.906C740.344 435.797 741.484 433.078 741.484 430.438V428.312H743.484V430.438ZM749.469 427.219V432.703H751.562V434.391H749.469V441.438H747.469V427.219H749.469ZM763.359 427.219V430.859H765.281V432.516H763.359V436.25H761.359V427.219H763.359ZM758.719 436.375C761.641 436.375 763.516 437.328 763.516 438.922C763.516 440.484 761.641 441.438 758.719 441.438C755.734 441.438 753.891 440.484 753.906 438.922C753.891 437.328 755.734 436.375 758.719 436.375ZM758.719 437.891C756.859 437.891 755.859 438.219 755.875 438.922C755.859 439.594 756.859 439.953 758.719 439.953C760.531 439.953 761.516 439.594 761.516 438.922C761.516 438.219 760.531 437.891 758.719 437.891ZM760.516 428.578V430.125H752.078V428.578H755.312V427.141H757.297V428.578H760.516ZM756.297 430.609C758.359 430.609 759.797 431.656 759.797 433.172C759.797 434.703 758.359 435.719 756.297 435.719C754.203 435.719 752.766 434.703 752.766 433.172C752.766 431.656 754.203 430.609 756.297 430.609ZM756.297 432.062C755.344 432.062 754.703 432.453 754.719 433.172C754.703 433.875 755.344 434.25 756.297 434.234C757.25 434.25 757.906 433.875 757.906 433.172C757.906 432.453 757.25 432.062 756.297 432.062ZM777.812 427.219V441.469H775.797V427.219H777.812ZM770.094 428.219C772.234 428.219 773.828 430.188 773.828 433.281C773.828 436.406 772.234 438.359 770.094 438.359C767.906 438.359 766.312 436.406 766.328 433.281C766.312 430.188 767.906 428.219 770.094 428.219ZM770.094 430.016C768.984 430.016 768.25 431.172 768.25 433.281C768.25 435.406 768.984 436.547 770.094 436.547C771.172 436.547 771.906 435.406 771.906 433.281C771.906 431.172 771.172 430.016 770.094 430.016ZM786.109 428.234V430.281H789.094V428.234H791.078V435.438H784.141V428.234H786.109ZM786.109 433.875H789.094V431.797H786.109V433.875ZM795.328 427.234V437.672H793.328V427.234H795.328ZM795.656 439.594V441.188H785.766V436.625H787.766V439.594H795.656ZM809.234 427.234V437.719H807.25V432.594H804.625V435.469H797.859V428.156H799.859V430.344H802.656V428.156H804.625V431H807.25V427.234H809.234ZM809.531 439.594V441.188H799.766V436.672H801.781V439.594H809.531ZM799.859 433.906H802.656V431.859H799.859V433.906ZM822.297 427.219V432.781H824.391V434.422H822.297V441.438H820.328V427.219H822.297ZM819.359 429.344V430.938H811V429.344H814.219V427.438H816.219V429.344H819.359ZM815.219 431.734C817.297 431.734 818.844 433.141 818.844 435.125C818.844 437.109 817.297 438.516 815.219 438.516C813.125 438.516 811.578 437.109 811.578 435.125C811.578 433.141 813.125 431.734 815.219 431.734ZM815.219 433.344C814.219 433.359 813.484 434.031 813.484 435.125C813.484 436.234 814.219 436.891 815.219 436.875C816.219 436.891 816.938 436.234 816.938 435.125C816.938 434.031 816.219 433.359 815.219 433.344ZM837.234 427.219V441.438H835.359V427.219H837.234ZM834.203 427.531V440.812H832.344V434.281H830.016C829.203 435.906 827.883 437.312 825.859 438.484L824.734 437.078C827.602 435.375 828.867 433.305 829.141 430.516H825.516V428.906H831.125C831.117 430.258 830.977 431.531 830.641 432.703H832.344V427.531H834.203ZM854.406 427.234V437.719H852.422V434.25H849.797V435.469H843.031V428.156H845.031V430.344H847.828V428.156H849.797V429.609H852.422V427.234H854.406ZM854.703 439.594V441.188H844.938V436.672H846.953V439.594H854.703ZM845.031 433.906H847.828V431.859H845.031V433.906ZM849.797 432.656H852.422V431.219H849.797V432.656ZM868.234 427.234V435.422H866.25V434.031H863.047V432.438H866.25V431.078H863.188C862.305 433.328 860.289 434.875 857.156 435.734L856.375 434.156C859.648 433.297 861.25 431.734 861.531 429.781H857.141V428.188H863.703C863.703 428.648 863.672 429.094 863.609 429.516H866.25V427.234H868.234ZM863.5 435.594C866.391 435.594 868.328 436.703 868.344 438.469C868.328 440.25 866.391 441.375 863.5 441.375C860.578 441.375 858.625 440.25 858.641 438.469C858.625 436.703 860.578 435.594 863.5 435.594ZM863.5 437.156C861.703 437.141 860.625 437.594 860.625 438.469C860.625 439.344 861.703 439.797 863.5 439.797C865.266 439.797 866.344 439.344 866.344 438.469C866.344 437.594 865.266 437.141 863.5 437.156ZM878.375 430.547V432.062H875.859V432.984C877.008 432.93 878.156 432.859 879.25 432.75L879.344 434.078C876.344 434.531 873.094 434.594 870.391 434.594L870.156 433.078C871.312 433.078 872.555 433.07 873.828 433.047V432.062H871.406V427.797H878.234V429.281H873.469V430.547H878.375ZM882.047 427.234V434.703H880.062V427.234H882.047ZM882.047 435.203V438.969H874.312V439.766H882.406V441.344H872.359V437.516H880.078V436.75H872.312V435.203H882.047ZM899.578 427.234V435.422H897.594V434.031H894.391V432.438H897.594V431.078H894.531C893.648 433.328 891.633 434.875 888.5 435.734L887.719 434.156C890.992 433.297 892.594 431.734 892.875 429.781H888.484V428.188H895.047C895.047 428.648 895.016 429.094 894.953 429.516H897.594V427.234H899.578ZM894.844 435.594C897.734 435.594 899.672 436.703 899.688 438.469C899.672 440.25 897.734 441.375 894.844 441.375C891.922 441.375 889.969 440.25 889.984 438.469C889.969 436.703 891.922 435.594 894.844 435.594ZM894.844 437.156C893.047 437.141 891.969 437.594 891.969 438.469C891.969 439.344 893.047 439.797 894.844 439.797C896.609 439.797 897.688 439.344 897.688 438.469C897.688 437.594 896.609 437.141 894.844 437.156ZM914.422 435.172V436.797H908.859V441.453H906.891V436.797H901.406V435.172H914.422ZM907.875 427.688C910.922 427.688 913.062 428.953 913.062 430.922C913.062 432.859 910.922 434.094 907.875 434.094C904.828 434.094 902.703 432.859 902.719 430.922C902.703 428.953 904.828 427.688 907.875 427.688ZM907.875 429.281C905.969 429.281 904.75 429.875 904.766 430.922C904.75 431.938 905.969 432.516 907.875 432.516C909.797 432.516 911 431.938 911 430.922C911 429.875 909.797 429.281 907.875 429.281ZM918.25 438.844L916.906 443.297H915.25L916.031 438.844H918.25ZM926.938 428.219C928.859 428.219 930.289 429.805 930.578 432.359H933.047V427.219H935.016V441.469H933.047V433.953H930.594C930.383 436.688 928.922 438.359 926.938 438.359C924.781 438.359 923.234 436.406 923.25 433.281C923.234 430.188 924.781 428.219 926.938 428.219ZM926.938 430.016C925.875 430.016 925.141 431.172 925.156 433.281C925.141 435.406 925.875 436.547 926.938 436.547C928.016 436.547 928.719 435.406 928.719 433.281C928.719 431.172 928.016 430.016 926.938 430.016ZM949.172 435.5V437.016H938.656V435.5H942.922V434.391H944.922V435.5H949.172ZM943.891 437.438C946.5 437.438 948.078 438.172 948.078 439.438C948.078 440.75 946.5 441.453 943.891 441.453C941.266 441.453 939.688 440.75 939.703 439.438C939.688 438.172 941.266 437.438 943.891 437.438ZM943.891 438.812C942.547 438.828 941.828 439 941.828 439.438C941.828 439.906 942.547 440.094 943.891 440.094C945.203 440.094 945.922 439.906 945.922 439.438C945.922 439 945.203 438.828 943.891 438.812ZM940.812 427.797V429.344H939.016V432.328C939.648 432.305 940.258 432.234 940.953 432.094L941.078 433.656C939.875 433.891 938.984 433.906 937.766 433.906H937.078V427.797H940.812ZM945.453 427.797V429.344H943.438V432.344C944.445 432.32 945.078 432.258 945.812 432.094L945.953 433.656C944.969 433.891 944.109 433.906 942.234 433.906H941.469V427.797H945.453ZM948.953 427.219V434.797H947V431.484H945.062V429.969H947V427.219H948.953ZM963 427.219V441.438H961.125V427.219H963ZM959.969 427.531V440.812H958.109V434.281H955.781C954.969 435.906 953.648 437.312 951.625 438.484L950.5 437.078C953.367 435.375 954.633 433.305 954.906 430.516H951.281V428.906H956.891C956.883 430.258 956.742 431.531 956.406 432.703H958.109V427.531H959.969ZM980.484 427.219V441.438H978.594V434.297H977.219V440.75H975.391V427.453H977.219V432.703H978.594V427.219H980.484ZM973.891 428.859V430.469H970.594V436.531C971.969 436.523 973.188 436.453 974.562 436.203L974.703 437.828C972.969 438.156 971.453 438.203 969.578 438.219H968.594V428.859H973.891ZM994.984 433.875V435.438H982.016V433.875H994.984ZM988.484 436.234C991.562 436.234 993.422 437.172 993.438 438.844C993.422 440.516 991.562 441.453 988.484 441.453C985.359 441.453 983.5 440.516 983.5 438.844C983.5 437.172 985.359 436.234 988.484 436.234ZM988.484 437.734C986.516 437.734 985.516 438.094 985.531 438.844C985.516 439.578 986.516 439.938 988.484 439.938C990.406 439.938 991.422 439.578 991.438 438.844C991.422 438.094 990.406 437.734 988.484 437.734ZM988.5 427.516C991.625 427.531 993.656 428.594 993.672 430.312C993.656 432.047 991.625 433.094 988.5 433.094C985.359 433.094 983.312 432.047 983.312 430.312C983.312 428.594 985.359 427.531 988.5 427.516ZM988.5 429.078C986.516 429.078 985.375 429.469 985.391 430.312C985.375 431.141 986.516 431.547 988.5 431.547C990.469 431.547 991.609 431.141 991.609 430.312C991.609 429.469 990.469 429.078 988.5 429.078ZM1007.06 427.219V432.781H1009.16V434.422H1007.06V441.438H1005.09V427.219H1007.06ZM1004.12 429.344V430.938H995.766V429.344H998.984V427.438H1000.98V429.344H1004.12ZM999.984 431.734C1002.06 431.734 1003.61 433.141 1003.61 435.125C1003.61 437.109 1002.06 438.516 999.984 438.516C997.891 438.516 996.344 437.109 996.344 435.125C996.344 433.141 997.891 431.734 999.984 431.734ZM999.984 433.344C998.984 433.359 998.25 434.031 998.25 435.125C998.25 436.234 998.984 436.891 999.984 436.875C1000.98 436.891 1001.7 436.234 1001.7 435.125C1001.7 434.031 1000.98 433.359 999.984 433.344ZM1015.2 430.438C1015.2 433.047 1016.39 435.672 1018.8 436.688L1017.62 438.281C1016 437.547 1014.88 436.133 1014.23 434.375C1013.59 436.289 1012.42 437.836 1010.69 438.625L1009.48 436.969C1011.97 435.922 1013.17 433.203 1013.19 430.438V428.312H1015.2V430.438ZM1021.58 427.219V441.469H1019.56V427.219H1021.58ZM1029.8 428.203C1029.8 429.203 1029.67 430.109 1029.41 430.938H1030.89V427.5H1032.77V435.125H1030.89V432.516H1028.67C1027.8 433.859 1026.43 434.914 1024.48 435.719L1023.52 434.25C1026.13 433.227 1027.43 431.766 1027.72 429.797H1024.23V428.203H1029.8ZM1035.72 427.234V435.312H1033.83V427.234H1035.72ZM1028.75 436.422C1028.75 437.562 1029.23 438.742 1030.39 439.516C1031.55 438.68 1032.06 437.445 1032.06 436.422V435.75H1034.03V436.422C1034.02 437.875 1034.83 439.297 1036.72 439.875L1035.75 441.328C1034.38 440.859 1033.49 439.977 1033 438.875C1032.53 439.969 1031.71 440.93 1030.42 441.438C1029.1 440.961 1028.27 440.023 1027.81 438.922C1027.31 439.984 1026.44 440.852 1025.14 441.328L1024.14 439.875C1026.02 439.234 1026.84 437.797 1026.86 436.422V435.75H1028.75V436.422ZM1040.81 435.75V436.953H1046.67V435.75H1048.66V441.281H1038.84V435.75H1040.81ZM1040.81 439.719H1046.67V438.469H1040.81V439.719ZM1050.3 433.422V435.031H1037.33V433.422H1050.3ZM1044.84 427.844C1044.84 429.266 1046.48 430.875 1049.66 431.234L1048.95 432.797C1046.5 432.484 1044.73 431.469 1043.81 430.094C1042.9 431.469 1041.12 432.484 1038.69 432.797L1037.97 431.234C1041.14 430.859 1042.78 429.297 1042.8 427.844V427.359H1044.84V427.844ZM1063.11 427.219V441.438H1061.12V427.219H1063.11ZM1053.89 428.578V436.219C1055.81 436.195 1057.88 436.016 1059.97 435.609L1060.22 437.25C1057.72 437.766 1055.38 437.938 1053.17 437.922H1051.92V428.578H1053.89ZM1076.38 427.219V432.797H1078.27V434.438H1076.38V441.438H1074.38V427.219H1076.38ZM1069.23 428.672C1069.22 432.578 1068.81 435.625 1066.27 438.422L1064.7 437.312C1066.64 435.219 1067.2 433.133 1067.33 430.297H1065.33V428.672H1069.23ZM1073.17 428.672C1073.17 432.734 1072.81 436.25 1070.3 439.344L1068.72 438.234C1070.65 435.859 1071.17 433.422 1071.3 430.297H1069.7V428.672H1073.17ZM1081.3 436.438C1081.31 434.5 1081.83 433.891 1082.77 433.312C1083.44 432.875 1083.95 432.391 1083.95 431.672C1083.95 430.891 1083.34 430.375 1082.59 430.375C1081.86 430.375 1081.19 430.859 1081.16 431.781H1078.94C1078.98 429.578 1080.61 428.531 1082.61 428.531C1084.78 428.531 1086.33 429.672 1086.33 431.594C1086.33 432.875 1085.67 433.703 1084.64 434.312C1083.77 434.844 1083.38 435.344 1083.36 436.438V436.609H1081.3V436.438ZM1082.38 440.141C1081.64 440.141 1081.05 439.547 1081.06 438.828C1081.05 438.109 1081.64 437.531 1082.38 437.531C1083.06 437.531 1083.67 438.109 1083.67 438.828C1083.67 439.547 1083.06 440.141 1082.38 440.141Z" fill="black"/>
</svg>
