<svg width="290" height="295" viewBox="0 0 290 295" fill="none" xmlns="http://www.w3.org/2000/svg">
<rect x="2" y="1" width="286.514" height="63" rx="30" fill="#F3F3F3"/>
<rect x="1.5" y="0.5" width="287.514" height="64" rx="30.5" stroke="#6E6E82" stroke-opacity="0.2"/>
<path d="M53.8066 26.627H54.9688L55.5742 27.418C55.9697 26.998 56.209 26.3389 56.209 25.4648C56.209 23.8535 55.3984 22.9746 54.2461 22.9746C53.0938 22.9746 52.2832 23.8535 52.2832 25.4648C52.2832 27.0762 53.0938 27.9551 54.2461 27.9551C54.4316 27.9551 54.6074 27.9307 54.7734 27.8867L53.8066 26.627ZM57.4883 25.4648C57.4883 26.749 57.0488 27.7354 56.3457 28.3555L57.3223 29.6152H56.082L55.4961 28.8633C55.1152 29.0195 54.6953 29.0977 54.2461 29.0977C52.3906 29.0977 51.0039 27.7402 51.0039 25.4648C51.0039 23.1797 52.3906 21.832 54.2461 21.832C56.1016 21.832 57.4883 23.1797 57.4883 25.4648ZM58.8945 29.0781C58.4746 29.0781 58.1328 28.7363 58.1328 28.3164C58.1328 27.9062 58.4746 27.5645 58.8945 27.5645C59.2949 27.5645 59.6465 27.9062 59.6465 28.3164C59.6465 28.7363 59.2949 29.0781 58.8945 29.0781ZM65.5742 21.4316C66.9121 21.4219 67.8887 22.1836 67.8887 23.2871C67.8887 24.3711 66.9121 25.1426 65.5742 25.1328C64.2461 25.1426 63.2793 24.3711 63.2793 23.2871C63.2793 22.1836 64.2461 21.4219 65.5742 21.4316ZM65.5742 22.3105C64.8516 22.3008 64.3242 22.6816 64.334 23.2871C64.3242 23.8828 64.8516 24.2441 65.5742 24.2441C66.3262 24.2441 66.8535 23.8828 66.8535 23.2871C66.8535 22.6816 66.3262 22.3008 65.5742 22.3105ZM70.0762 21.0508V29.8594H69.002V21.0508H70.0762ZM62.7031 25.7383C64.2949 25.7383 66.5215 25.709 68.4258 25.4258L68.5039 26.2266C67.7422 26.373 66.9512 26.4658 66.1797 26.5195V29.5957H65.0859V26.5879C64.2705 26.6221 63.5039 26.627 62.8398 26.6367L62.7031 25.7383ZM73.4551 21.1777V21.8711H77.2637V21.1777H78.3379V24.1172H75.877V24.791H79.3828V25.6504H71.3359V24.791H74.8027V24.1172H72.3809V21.1777H73.4551ZM73.4551 23.3066H77.2637V22.6621H73.4551V23.3066ZM78.377 26.207V28.3457H73.3574V28.9609H78.6211V29.791H72.293V27.584H77.3125V27.0078H72.2832V26.207H78.377ZM87.3125 21.0508V27.5449H86.2383V21.0508H87.3125ZM87.5566 28.8145V29.6934H81.4336V27.0176H82.5273V28.8145H87.5566ZM84.5 21.6465V24.3711H81.5117V25.4844C83.1084 25.4795 84.1582 25.4307 85.3789 25.2109L85.4961 26.0801C84.168 26.3242 83.0059 26.373 81.1992 26.373H80.4473V23.5508H83.4258V22.5156H80.4277V21.6465H84.5ZM95.9648 21.041V29.8789H94.8711V21.041H95.9648ZM91.209 21.6855C92.5371 21.6855 93.5039 22.8965 93.5137 24.8008C93.5039 26.7246 92.5371 27.9258 91.209 27.9258C89.8711 27.9258 88.9043 26.7246 88.9043 24.8008C88.9043 22.8965 89.8711 21.6855 91.209 21.6855ZM91.209 22.6621C90.457 22.6621 89.9492 23.4531 89.9492 24.8008C89.9492 26.1582 90.457 26.9492 91.209 26.9492C91.9512 26.9492 92.459 26.1582 92.459 24.8008C92.459 23.4531 91.9512 22.6621 91.209 22.6621ZM107.684 25.377V26.2559H99.6367V25.377H103.113V24.1465H104.188V25.377H107.684ZM104.197 21.5195C104.197 22.5938 105.379 23.5703 107.225 23.8047L106.805 24.6543C105.354 24.4297 104.202 23.7754 103.641 22.8477C103.074 23.7754 101.922 24.4297 100.467 24.6543L100.076 23.8047C101.893 23.5703 103.094 22.5742 103.094 21.5195V21.1875H104.197V21.5195ZM106.697 26.959V29.8691H105.613V27.8086H100.525V26.959H106.697ZM115.242 21.0508V23.8242H116.473V24.7227H115.242V27.6426H114.158V21.0508H115.242ZM113.523 22.0273V22.8965H108.289V22.0273H110.369V21.041H111.453V22.0273H113.523ZM110.906 23.2578C112.176 23.2578 113.055 23.9316 113.064 24.9473C113.055 25.9531 112.176 26.6172 110.906 26.6172C109.627 26.6172 108.738 25.9531 108.738 24.9473C108.738 23.9316 109.627 23.2578 110.906 23.2578ZM110.906 24.0977C110.232 24.0977 109.793 24.4102 109.793 24.9473C109.793 25.4746 110.232 25.7871 110.906 25.7773C111.58 25.7871 112.029 25.4746 112.029 24.9473C112.029 24.4102 111.58 24.0977 110.906 24.0977ZM115.594 28.8145V29.6934H109.588V27.125H110.672V28.8145H115.594ZM122.459 22.6035C122.449 23.7656 123.182 24.8691 124.568 25.3184L124.002 26.1777C123.021 25.8457 122.327 25.1816 121.941 24.332C121.546 25.2695 120.818 26.002 119.793 26.3633L119.188 25.5039C120.643 25.0352 121.365 23.8438 121.365 22.5938V21.5879H122.459V22.6035ZM126.258 21.041V23.6484H127.488V24.5664H126.258V27.5254H125.174V21.041H126.258ZM126.609 28.8145V29.6934H120.604V26.8906H121.717V28.8145H126.609ZM130.389 21.4316C131.531 21.4219 132.43 22.0811 132.654 23.0527H134.246V21.041H135.33V25.7773H134.246V23.9316H132.664C132.444 24.9229 131.536 25.5918 130.389 25.5918C129.031 25.5918 128.055 24.7227 128.055 23.502C128.055 22.3008 129.031 21.4219 130.389 21.4316ZM130.389 22.3398C129.627 22.3398 129.09 22.7891 129.09 23.502C129.09 24.2051 129.627 24.6738 130.389 24.6738C131.131 24.6738 131.658 24.2051 131.668 23.502C131.658 22.7891 131.131 22.3398 130.389 22.3398ZM130.584 26.1875V27.125H134.246V26.1875H135.33V29.7617H129.51V26.1875H130.584ZM130.584 28.8828H134.246V27.9648H130.584V28.8828ZM144.197 21.041V29.8691H143.152V21.041H144.197ZM142.381 21.1973V29.4395H141.346V25.2402H140.506C140.403 26.959 139.666 28.0234 138.572 28.0137C137.42 28.0234 136.668 26.8027 136.668 24.8594C136.668 22.916 137.42 21.7148 138.572 21.7148C139.642 21.7148 140.369 22.7109 140.496 24.3613H141.346V21.1973H142.381ZM138.572 22.7402C138.016 22.7305 137.664 23.4824 137.674 24.8594C137.664 26.2363 138.016 26.9883 138.572 26.9785C139.158 26.9883 139.51 26.2363 139.51 24.8594C139.51 23.4824 139.158 22.7305 138.572 22.7402ZM148.484 23.1602C148.484 24.8008 149.266 26.4121 150.672 27.0273L150.018 27.8965C149.017 27.4082 148.313 26.4707 147.938 25.3184C147.552 26.5342 146.834 27.5449 145.818 28.0625L145.135 27.1836C146.57 26.5098 147.371 24.8105 147.381 23.1602V21.7539H148.484V23.1602ZM152.625 21.041V29.8789H151.551V24.7715H149.695V23.8926H151.551V21.041H152.625ZM156.727 21.6562C158.123 21.6465 159.148 22.5352 159.158 23.7852C159.148 25.0449 158.123 25.9238 156.727 25.9238C155.34 25.9238 154.305 25.0449 154.305 23.7852C154.305 22.5352 155.34 21.6465 156.727 21.6562ZM156.727 22.5938C155.955 22.5938 155.379 23.0527 155.379 23.7852C155.379 24.5273 155.955 24.9766 156.727 24.9766C157.508 24.9766 158.094 24.5273 158.094 23.7852C158.094 23.0527 157.508 22.5938 156.727 22.5938ZM161.219 21.041V29.8789H160.135V21.041H161.219ZM153.904 27.1445C155.496 27.1445 157.703 27.125 159.607 26.8516L159.695 27.6426C157.713 28.0234 155.594 28.0332 154.041 28.0332L153.904 27.1445ZM168.357 25.7676V27.1934C169.124 27.1543 169.896 27.0859 170.623 26.9785L170.711 27.7793C168.729 28.1406 166.609 28.1602 165.057 28.1602L164.92 27.2812C165.608 27.2764 166.419 27.2715 167.273 27.2422V25.7676H168.357ZM170.262 22.125V23.0039H168.377C168.426 23.9463 169.173 24.7959 170.506 25.1328L170.008 25.9824C168.963 25.6992 168.216 25.0889 167.82 24.3027C167.43 25.1328 166.692 25.7676 165.643 26.0508L165.125 25.2305C166.458 24.8643 167.19 23.9951 167.254 23.0039H165.389V22.125H167.273V21.1191H168.357V22.125H170.262ZM172.234 21.041V29.8789H171.15V21.041H172.234ZM180.877 21.0508V27.4961H179.783V21.0508H180.877ZM181.121 28.8145V29.6934H175.037V26.8809H176.131V28.8145H181.121ZM176.814 22.3984C176.814 23.6289 177.537 24.791 178.934 25.2598L178.377 26.1191C177.371 25.7676 176.653 25.0645 176.268 24.166C175.867 25.1279 175.14 25.8994 174.1 26.2754L173.533 25.416C174.969 24.9082 175.691 23.668 175.691 22.3984V21.5391H176.814V22.3984ZM191.912 21.041V29.8691H190.818V21.041H191.912ZM189.275 21.9785C189.275 24.6055 188.26 26.8418 185.164 28.3066L184.598 27.4375C186.907 26.3389 187.981 24.8447 188.172 22.8379H185.047V21.9785H189.275ZM197.762 21.3242C197.762 22.2715 198.973 23.1211 200.809 23.3262L200.447 24.1465C198.953 23.9756 197.767 23.3799 197.195 22.5254C196.629 23.3799 195.442 23.9756 193.963 24.1465L193.592 23.3262C195.447 23.1211 196.639 22.2715 196.648 21.3242V21.0898H197.762V21.3242ZM201.229 24.5859V25.4453H197.732V26.1289H200.223V28.3164H195.203V28.9609H200.467V29.791H194.139V27.5352H199.158V26.959H194.129V26.1289H196.648V25.4453H193.182V24.5859H201.229ZM211.375 25.6699V26.5293H205.184V21.7344H211.297V22.6133H206.287V23.6777H211.092V24.5273H206.287V25.6699H211.375ZM212.264 27.9062V28.7949H204.197V27.9062H212.264ZM216.336 21.7246V24.4297H214.275V25.5332C215.291 25.5234 216.048 25.4795 216.941 25.3086L217.049 26.168C216.004 26.373 215.105 26.4023 213.807 26.4023H213.211V23.6387H215.281V22.5742H213.201V21.7246H216.336ZM220.389 21.0508V27.6816H219.354V21.0508H220.389ZM218.602 21.207V27.457H217.576V24.2344H216.668V23.3359H217.576V21.207H218.602ZM220.633 28.8145V29.6934H214.48V27.0176H215.564V28.8145H220.633ZM228.65 25.1816V26.0508H222.459V21.8125H228.582V22.6914H223.533V25.1816H228.65ZM229.549 27.8477V28.7461H221.482V27.8477H229.549ZM238.182 25.0449V25.8652H230.115V25.0449H238.182ZM237.205 26.3926V28.4043H232.146V29.0195H237.469V29.7715H231.062V27.7012H236.131V27.1543H231.053V26.3926H237.205ZM237.186 21.2363V23.2285H232.215V23.8047H237.342V24.5469H231.141V22.5254H236.102V21.9883H231.111V21.2363H237.186ZM94.7051 34.6855C95.9014 34.6855 96.7852 35.6816 96.9414 37.293H98.6211V34.041H99.6953V42.8789H98.6211V38.1719H96.9512C96.834 39.876 95.9355 40.9258 94.7051 40.9258C93.377 40.9258 92.4395 39.7246 92.4395 37.8008C92.4395 35.8965 93.377 34.6855 94.7051 34.6855ZM94.7051 35.6621C93.9727 35.6621 93.4746 36.4531 93.4844 37.8008C93.4746 39.1582 93.9727 39.9492 94.7051 39.9492C95.4375 39.9492 95.9258 39.1582 95.9355 37.8008C95.9258 36.4531 95.4375 35.6621 94.7051 35.6621ZM108.553 39.2266V40.0566H102.098V39.2266H104.793V38.4746H105.877V39.2266H108.553ZM105.311 40.3691C106.922 40.3691 107.879 40.8184 107.879 41.6094C107.879 42.4297 106.922 42.8691 105.311 42.8691C103.699 42.8691 102.732 42.4297 102.742 41.6094C102.732 40.8184 103.699 40.3691 105.311 40.3691ZM105.311 41.1211C104.402 41.1309 103.895 41.2871 103.895 41.6094C103.895 41.9512 104.402 42.1172 105.311 42.1172C106.209 42.1172 106.707 41.9512 106.717 41.6094C106.707 41.2871 106.209 41.1309 105.311 41.1211ZM103.396 34.4316V35.2812H102.176V37.3125C102.596 37.293 103.021 37.249 103.494 37.1465L103.572 37.9961C102.801 38.1523 102.215 38.1621 101.521 38.1621H101.111V34.4316H103.396ZM106.307 34.4316V35.2812H104.91V37.3125C105.589 37.3027 106.038 37.2588 106.561 37.1367L106.648 37.9961C105.965 38.1523 105.398 38.1621 104.295 38.1621H103.836V34.4316H106.307ZM108.406 34.041V38.748H107.342V36.6289H106.004V35.7988H107.342V34.041H108.406ZM117.195 34.041V42.8691H116.16V34.041H117.195ZM115.32 34.2559V42.4492H114.295V38.3867H112.723C112.205 39.4023 111.375 40.2812 110.125 41.0039L109.51 40.2324C111.341 39.1533 112.176 37.7715 112.342 35.9941H109.959V35.1152H113.416C113.416 35.9697 113.313 36.7705 113.074 37.5176H114.295V34.2559H115.32ZM127.674 34.0215V37.4004H128.816V38.3086H127.674V42.8691H126.59V34.0215H127.674ZM123.074 34.9395V35.8184H121.883V39.7441C122.278 39.7246 122.684 39.6855 123.143 39.5977L123.23 40.4863C122.469 40.6328 121.873 40.6523 121.229 40.6523H120.799V34.9395H123.074ZM125.926 34.9395V35.8184H124.617V39.7441C125.213 39.7344 125.633 39.6904 126.102 39.5781L126.189 40.4668C125.535 40.6328 124.998 40.6523 124.002 40.6523H123.553V34.9395H125.926ZM136.15 34.041V37.4297H137.508V38.3379H136.15V42.8789H135.076V34.041H136.15ZM133.65 34.8125V38.1426H130.682V39.9004C132.078 39.8906 133.167 39.832 134.402 39.6172L134.5 40.4961C133.143 40.7402 131.932 40.7988 130.33 40.7988H129.607V37.2734H132.566V35.6914H129.588V34.8125H133.65ZM144.793 34.041V37.4883H146.102V38.3965H144.793V42.8496H143.709V34.041H144.793ZM142.459 34.959C142.459 37.5566 141.385 39.832 138.445 41.2773L137.83 40.4375C139.979 39.3682 141.141 37.8643 141.365 35.8574H138.309V34.959H142.459ZM153.729 34.8516V35.7012C153.719 36.7949 153.719 38.0254 153.377 39.8711L152.283 39.7539C152.625 38.0352 152.625 36.7803 152.635 35.7207H147.361V34.8516H153.729ZM154.568 40.8379V41.7266H146.521V40.8379H149.49V37.7715H150.564V40.8379H154.568ZM165.154 34.041V42.8691H164.119V34.041H165.154ZM163.328 34.2559V42.4492H162.293V39.5H160.916V38.6113H162.293V37.3027H161.072C160.657 38.7676 159.734 40.0273 158.084 41.0039L157.449 40.2324C159.28 39.1533 160.12 37.7715 160.281 35.9941H157.918V35.1152H161.355C161.355 35.5596 161.326 35.9941 161.268 36.4141H162.293V34.2559H163.328ZM173.533 34.0508V40.4961H172.439V34.0508H173.533ZM173.777 41.8145V42.6934H167.693V39.8809H168.787V41.8145H173.777ZM169.471 35.3984C169.471 36.6289 170.193 37.791 171.59 38.2598L171.033 39.1191C170.027 38.7676 169.31 38.0645 168.924 37.166C168.523 38.1279 167.796 38.8994 166.756 39.2754L166.189 38.416C167.625 37.9082 168.348 36.668 168.348 35.3984V34.5391H169.471V35.3984ZM181.736 34.041V37.4883H183.045V38.3965H181.736V42.8496H180.652V34.041H181.736ZM179.402 34.959C179.402 37.5566 178.328 39.832 175.389 41.2773L174.773 40.4375C176.922 39.3682 178.084 37.8643 178.309 35.8574H175.252V34.959H179.402ZM191.531 40.9062V41.7949H183.465V40.9062H185.33V38.6699C184.627 38.2695 184.202 37.6396 184.207 36.8535C184.197 35.4473 185.584 34.5195 187.479 34.5195C189.383 34.5195 190.77 35.4473 190.77 36.8535C190.77 37.625 190.359 38.2451 189.676 38.6504V40.9062H191.531ZM187.479 35.3789C186.16 35.3789 185.262 35.9355 185.271 36.8535C185.262 37.7617 186.16 38.3281 187.479 38.3281C188.797 38.3281 189.705 37.7617 189.705 36.8535C189.705 35.9355 188.797 35.3789 187.479 35.3789ZM186.404 40.9062H188.572V39.0605C188.235 39.1387 187.869 39.1777 187.479 39.1777C187.098 39.1777 186.736 39.1387 186.404 39.0703V40.9062ZM193.602 39.832C193.611 38.5918 193.963 38.2109 194.578 37.8301C194.998 37.5664 195.311 37.2344 195.311 36.7461C195.311 36.1992 194.891 35.8477 194.354 35.8477C193.865 35.8477 193.396 36.1602 193.367 36.8145H192.146C192.176 35.5059 193.162 34.832 194.363 34.832C195.682 34.832 196.59 35.5645 196.59 36.7266C196.59 37.5176 196.189 38.0352 195.555 38.416C194.988 38.7578 194.754 39.0996 194.744 39.832V39.9199H193.602V39.832ZM194.207 42.0781C193.787 42.0781 193.445 41.7363 193.445 41.3164C193.445 40.9062 193.787 40.5645 194.207 40.5645C194.607 40.5645 194.959 40.9062 194.959 41.3164C194.959 41.7363 194.607 42.0781 194.207 42.0781Z" fill="black"/>
<rect x="1" y="76" width="286.514" height="63" rx="30" fill="#F3F3F3"/>
<rect x="0.5" y="75.5" width="287.514" height="64" rx="30.5" stroke="#6E6E82" stroke-opacity="0.2"/>
<path d="M84.0557 102.627H85.2178L85.8232 103.418C86.2188 102.998 86.458 102.339 86.458 101.465C86.458 99.8535 85.6475 98.9746 84.4951 98.9746C83.3428 98.9746 82.5322 99.8535 82.5322 101.465C82.5322 103.076 83.3428 103.955 84.4951 103.955C84.6807 103.955 84.8564 103.931 85.0225 103.887L84.0557 102.627ZM87.7373 101.465C87.7373 102.749 87.2979 103.735 86.5947 104.355L87.5713 105.615H86.3311L85.7451 104.863C85.3643 105.02 84.9443 105.098 84.4951 105.098C82.6396 105.098 81.2529 103.74 81.2529 101.465C81.2529 99.1797 82.6396 97.832 84.4951 97.832C86.3506 97.832 87.7373 99.1797 87.7373 101.465ZM89.1436 105.078C88.7236 105.078 88.3818 104.736 88.3818 104.316C88.3818 103.906 88.7236 103.564 89.1436 103.564C89.5439 103.564 89.8955 103.906 89.8955 104.316C89.8955 104.736 89.5439 105.078 89.1436 105.078ZM95.8232 97.4316C97.1611 97.4219 98.1377 98.1836 98.1377 99.2871C98.1377 100.371 97.1611 101.143 95.8232 101.133C94.4951 101.143 93.5283 100.371 93.5283 99.2871C93.5283 98.1836 94.4951 97.4219 95.8232 97.4316ZM95.8232 98.3105C95.1006 98.3008 94.5732 98.6816 94.583 99.2871C94.5732 99.8828 95.1006 100.244 95.8232 100.244C96.5752 100.244 97.1025 99.8828 97.1025 99.2871C97.1025 98.6816 96.5752 98.3008 95.8232 98.3105ZM100.325 97.0508V105.859H99.251V97.0508H100.325ZM92.9521 101.738C94.5439 101.738 96.7705 101.709 98.6748 101.426L98.7529 102.227C97.9912 102.373 97.2002 102.466 96.4287 102.52V105.596H95.335V102.588C94.5195 102.622 93.7529 102.627 93.0889 102.637L92.9521 101.738ZM103.704 97.1777V97.8711H107.513V97.1777H108.587V100.117H106.126V100.791H109.632V101.65H101.585V100.791H105.052V100.117H102.63V97.1777H103.704ZM103.704 99.3066H107.513V98.6621H103.704V99.3066ZM108.626 102.207V104.346H103.606V104.961H108.87V105.791H102.542V103.584H107.562V103.008H102.532V102.207H108.626ZM117.562 97.0508V103.545H116.487V97.0508H117.562ZM117.806 104.814V105.693H111.683V103.018H112.776V104.814H117.806ZM114.749 97.6465V100.371H111.761V101.484C113.357 101.479 114.407 101.431 115.628 101.211L115.745 102.08C114.417 102.324 113.255 102.373 111.448 102.373H110.696V99.5508H113.675V98.5156H110.677V97.6465H114.749ZM121.731 97.6562C123.128 97.6465 124.153 98.5352 124.163 99.7852C124.153 101.045 123.128 101.924 121.731 101.924C120.345 101.924 119.31 101.045 119.31 99.7852C119.31 98.5352 120.345 97.6465 121.731 97.6562ZM121.731 98.5938C120.96 98.5938 120.384 99.0527 120.384 99.7852C120.384 100.527 120.96 100.977 121.731 100.977C122.513 100.977 123.099 100.527 123.099 99.7852C123.099 99.0527 122.513 98.5938 121.731 98.5938ZM126.224 97.041V105.879H125.14V97.041H126.224ZM118.909 103.145C120.501 103.145 122.708 103.125 124.612 102.852L124.7 103.643C122.718 104.023 120.599 104.033 119.046 104.033L118.909 103.145ZM137.933 101.963V102.842H134.427V105.859H133.353V102.842H129.886V101.963H137.933ZM137.19 97.5391V98.3984H134.544C134.607 99.3652 135.77 100.293 137.513 100.518L137.122 101.367C135.618 101.157 134.446 100.469 133.909 99.5117C133.372 100.469 132.2 101.157 130.716 101.367L130.306 100.518C132.039 100.293 133.201 99.3652 133.284 98.3984H130.628V97.5391H137.19ZM146.595 103.906V104.795H138.528V103.906H140.394V101.67C139.69 101.27 139.266 100.64 139.271 99.8535C139.261 98.4473 140.647 97.5195 142.542 97.5195C144.446 97.5195 145.833 98.4473 145.833 99.8535C145.833 100.625 145.423 101.245 144.739 101.65V103.906H146.595ZM142.542 98.3789C141.224 98.3789 140.325 98.9355 140.335 99.8535C140.325 100.762 141.224 101.328 142.542 101.328C143.86 101.328 144.769 100.762 144.769 99.8535C144.769 98.9355 143.86 98.3789 142.542 98.3789ZM141.468 103.906H143.636V102.061C143.299 102.139 142.933 102.178 142.542 102.178C142.161 102.178 141.8 102.139 141.468 102.07V103.906ZM157.142 97.041V105.869H156.106V97.041H157.142ZM155.345 97.207V105.439H154.319V100.996H153.05V100.117H154.319V97.207H155.345ZM152.269 99.4531C152.269 100.947 152.806 102.441 154.065 103.164L153.421 103.965C152.605 103.477 152.063 102.637 151.761 101.631C151.448 102.72 150.887 103.647 150.052 104.17L149.388 103.359C150.667 102.588 151.224 100.986 151.224 99.4531V98.8672H149.69V97.9883H153.694V98.8672H152.269V99.4531ZM166.233 101.221V102.09H162.737V102.939H165.257V105.762H159.134V102.939H161.663V102.09H158.187V101.221H166.233ZM165.491 97.3047V98.1738H164.28V99.6875H165.442V100.566H158.958V99.6875H160.12V98.1738H158.909V97.3047H165.491ZM160.208 103.779V104.883H164.202V103.779H160.208ZM161.204 99.6875H163.187V98.1738H161.204V99.6875ZM177.249 101.094V101.973H173.753V102.705C175.335 102.812 176.263 103.359 176.272 104.277C176.263 105.293 175.12 105.859 173.216 105.859C171.292 105.859 170.14 105.293 170.14 104.277C170.14 103.359 171.077 102.808 172.679 102.705V101.973H169.202V101.094H177.249ZM173.216 103.525C171.927 103.535 171.233 103.789 171.243 104.277C171.233 104.766 171.927 105.029 173.216 105.029C174.476 105.029 175.179 104.766 175.188 104.277C175.179 103.789 174.476 103.535 173.216 103.525ZM176.526 97.4316V98.3008H173.987C174.158 99.0283 175.213 99.6826 176.868 99.834L176.487 100.693C174.886 100.532 173.694 99.8926 173.216 98.9941C172.737 99.8877 171.565 100.532 169.964 100.693L169.593 99.834C171.214 99.6826 172.269 99.0186 172.454 98.3008H169.935V97.4316H176.526ZM187.132 97.041V100.557H188.489V101.455H187.132V105.869H186.058V97.041H187.132ZM185.374 98.3984V99.2676H180.169V98.3984H182.259V97.168H183.343V98.3984H185.374ZM182.806 99.8438C184.075 99.8438 185.022 100.703 185.022 101.924C185.022 103.145 184.075 103.994 182.806 103.994C181.517 103.994 180.569 103.145 180.579 101.924C180.569 100.703 181.517 99.8438 182.806 99.8438ZM182.806 100.732C182.112 100.732 181.614 101.201 181.614 101.924C181.614 102.646 182.112 103.105 182.806 103.096C183.479 103.105 183.978 102.646 183.987 101.924C183.978 101.201 183.479 100.732 182.806 100.732ZM197.083 100.449V101.338H195.774V105.85H194.69V97.041H195.774V100.449H197.083ZM190.247 97.9004V102.773C191.424 102.754 192.679 102.651 194.007 102.373L194.124 103.291C192.64 103.584 191.224 103.672 189.915 103.672H189.173V97.9004H190.247ZM204.856 97.0508V103.428H203.763V97.0508H204.856ZM205.101 104.814V105.693H199.017V102.783H200.11V104.814H205.101ZM200.042 97.627C201.38 97.627 202.415 98.5547 202.415 99.834C202.415 101.143 201.38 102.051 200.042 102.051C198.694 102.051 197.659 101.143 197.659 99.834C197.659 98.5547 198.694 97.627 200.042 97.627ZM200.042 98.5742C199.29 98.5742 198.714 99.0723 198.724 99.834C198.714 100.615 199.29 101.104 200.042 101.104C200.774 101.104 201.351 100.615 201.351 99.834C201.351 99.0723 200.774 98.5742 200.042 98.5742ZM34.1289 110.402V111.135C34.1289 111.823 34.1289 112.575 33.9434 113.518H35.0762V114.387H27.0684V113.518H32.8691C32.9229 113.205 32.9619 112.917 32.9961 112.639L27.9473 112.854L27.8203 112.014L33.0352 111.887C33.0449 111.672 33.0449 111.467 33.0449 111.262H28.0449V110.402H34.1289ZM34.1777 115.021V117.248H29.0508V117.912H34.4902V118.762H27.9766V116.457H33.0938V115.852H27.957V115.021H34.1777ZM42.6055 110.041V113.43H43.9629V114.338H42.6055V118.879H41.5312V110.041H42.6055ZM40.1055 110.812V114.143H37.1367V115.9C38.5332 115.891 39.6221 115.832 40.8574 115.617L40.9551 116.496C39.5977 116.74 38.3867 116.799 36.7852 116.799H36.0625V113.273H39.0215V111.691H36.043V110.812H40.1055ZM52.3906 115.012V115.91H48.875V118.869H47.8008V115.91H44.3242V115.012H52.3906ZM48.3379 110.354C50.2129 110.363 51.5215 111.125 51.5215 112.336C51.5215 113.537 50.2129 114.289 48.3379 114.289C46.4531 114.289 45.1641 113.537 45.1738 112.336C45.1641 111.125 46.4531 110.363 48.3379 110.354ZM48.3379 111.232C47.0879 111.232 46.2773 111.643 46.2871 112.336C46.2773 113.02 47.0879 113.43 48.3379 113.43C49.5879 113.43 50.3984 113.02 50.3984 112.336C50.3984 111.643 49.5879 111.232 48.3379 111.232ZM60.1445 114.182V115.051H53.9531V110.812H60.0762V111.691H55.0273V114.182H60.1445ZM61.043 116.848V117.746H52.9766V116.848H61.043ZM71.3652 110.041V118.869H70.2715V110.041H71.3652ZM68.7285 110.979C68.7285 113.605 67.7129 115.842 64.6172 117.307L64.0508 116.438C66.3604 115.339 67.4346 113.845 67.625 111.838H64.5V110.979H68.7285ZM79.5977 110.051V112.6H80.8281V113.498H79.5977V116.545H78.5137V110.051H79.5977ZM79.9492 117.814V118.693H73.9434V115.891H75.0273V117.814H79.9492ZM74.0117 110.676V112.023H76.0723V110.676H77.1465V115.109H72.9375V110.676H74.0117ZM74.0117 114.25H76.0723V112.863H74.0117V114.25ZM91.7168 116.896V117.775H83.6504V116.896H87.1074V114.855H88.1816V116.896H91.7168ZM88.2109 111.223C88.2109 112.561 89.5488 113.879 91.4043 114.172L90.9355 115.07C89.4414 114.787 88.2207 113.933 87.6348 112.775C87.0488 113.928 85.8379 114.797 84.3535 115.07L83.8848 114.172C85.7305 113.879 87.0488 112.551 87.0586 111.223V110.578H88.2109V111.223ZM100.359 116.896V117.805H92.293V116.896H100.359ZM99.6562 110.861V111.73H98.3672V114.543H99.627V115.402H92.9863V114.543H94.2266V111.73H92.957V110.861H99.6562ZM95.3105 114.543H97.293V111.73H95.3105V114.543ZM108.113 114.67V115.529H101.922V110.734H108.035V111.613H103.025V112.678H107.83V113.527H103.025V114.67H108.113ZM109.002 116.906V117.795H100.936V116.906H109.002ZM111.805 110.559C112.928 110.568 113.748 111.242 113.748 112.229C113.748 113.205 112.928 113.879 111.805 113.869C110.662 113.879 109.842 113.205 109.842 112.229C109.842 111.242 110.662 110.568 111.805 110.559ZM111.805 111.379C111.209 111.369 110.809 111.711 110.809 112.229C110.809 112.736 111.209 113.068 111.805 113.068C112.381 113.068 112.781 112.736 112.791 112.229C112.781 111.711 112.381 111.369 111.805 111.379ZM117.254 110.041V118.869H116.229V110.041H117.254ZM115.496 110.207V118.43H114.48V116.584H112.986V115.754H114.48V110.207H115.496ZM109.451 114.416C110.652 114.416 112.576 114.406 113.992 114.191L114.07 115.002C113.509 115.109 112.894 115.183 112.283 115.227V118.156H111.258V115.285C110.638 115.31 110.052 115.314 109.578 115.314L109.451 114.416ZM120.633 110.686C121.829 110.686 122.713 111.682 122.869 113.293H124.549V110.041H125.623V118.879H124.549V114.172H122.879C122.762 115.876 121.863 116.926 120.633 116.926C119.305 116.926 118.367 115.725 118.367 113.801C118.367 111.896 119.305 110.686 120.633 110.686ZM120.633 111.662C119.9 111.662 119.402 112.453 119.412 113.801C119.402 115.158 119.9 115.949 120.633 115.949C121.365 115.949 121.854 115.158 121.863 113.801C121.854 112.453 121.365 111.662 120.633 111.662ZM133.787 112.707V113.732H137.283V114.602H129.236V113.732H132.713V112.707H133.787ZM133.797 110.354C133.797 111.359 134.959 112.199 136.844 112.385L136.463 113.215C134.983 113.029 133.812 112.473 133.25 111.613C132.674 112.473 131.507 113.029 130.027 113.215L129.646 112.385C131.531 112.199 132.693 111.359 132.693 110.354V110.119H133.797V110.354ZM136.277 115.139V117.326H131.258V117.961H136.521V118.791H130.193V116.555H135.213V115.969H130.184V115.139H136.277ZM144.998 110.344V112.854H139.93V113.732H145.193V114.602H138.836V112.033H143.885V111.223H138.816V110.344H144.998ZM145.936 115.354V116.223H142.43V118.879H141.346V116.223H137.869V115.354H145.936ZM149.734 111.604C149.734 112.844 150.428 114.064 151.785 114.572L151.18 115.412C150.237 115.041 149.563 114.304 149.197 113.391C148.816 114.367 148.104 115.144 147.088 115.539L146.502 114.68C147.908 114.172 148.631 112.922 148.641 111.604V110.549H149.734V111.604ZM153.914 110.051V116.604H152.83V113.869H151.219V113H152.83V112.131H151.219V111.252H152.83V110.051H153.914ZM154.109 117.814V118.693H148.094V115.959H149.197V117.814H154.109ZM162.781 110.041V118.869H161.736V110.041H162.781ZM160.965 110.197V118.439H159.93V114.24H159.09C158.987 115.959 158.25 117.023 157.156 117.014C156.004 117.023 155.252 115.803 155.252 113.859C155.252 111.916 156.004 110.715 157.156 110.715C158.226 110.715 158.953 111.711 159.08 113.361H159.93V110.197H160.965ZM157.156 111.74C156.6 111.73 156.248 112.482 156.258 113.859C156.248 115.236 156.6 115.988 157.156 115.979C157.742 115.988 158.094 115.236 158.094 113.859C158.094 112.482 157.742 111.73 157.156 111.74ZM173.777 110.041V118.869H172.742V114.367H171.746V118.42H170.75V110.207H171.746V113.498H172.742V110.041H173.777ZM169.754 111.086V111.965H167.547V115.891C168.509 115.881 169.3 115.832 170.193 115.666L170.271 116.555C169.207 116.77 168.279 116.799 167.049 116.809H166.453V111.086H169.754ZM179.129 111.447V112.316H174.803V111.447H176.443V110.295H177.518V111.447H179.129ZM176.98 112.785C178.104 112.785 178.904 113.635 178.904 114.836C178.904 116.057 178.104 116.916 176.98 116.916C175.867 116.916 175.047 116.057 175.057 114.836C175.047 113.635 175.867 112.785 176.98 112.785ZM176.98 113.684C176.404 113.684 176.004 114.143 176.014 114.836C176.004 115.549 176.404 115.998 176.98 115.988C177.547 115.998 177.947 115.549 177.947 114.836C177.947 114.143 177.547 113.684 176.98 113.684ZM182.41 110.041V118.869H181.375V114.553H180.516V118.469H179.5V110.227H180.516V113.674H181.375V110.041H182.41ZM193.182 110.041V118.879H192.088V110.041H193.182ZM188.426 110.686C189.754 110.686 190.721 111.896 190.73 113.801C190.721 115.725 189.754 116.926 188.426 116.926C187.088 116.926 186.121 115.725 186.121 113.801C186.121 111.896 187.088 110.686 188.426 110.686ZM188.426 111.662C187.674 111.662 187.166 112.453 187.166 113.801C187.166 115.158 187.674 115.949 188.426 115.949C189.168 115.949 189.676 115.158 189.676 113.801C189.676 112.453 189.168 111.662 188.426 111.662ZM198.787 111.447V112.316H194.461V111.447H196.102V110.295H197.176V111.447H198.787ZM196.639 112.785C197.762 112.785 198.562 113.635 198.562 114.836C198.562 116.057 197.762 116.916 196.639 116.916C195.525 116.916 194.705 116.057 194.715 114.836C194.705 113.635 195.525 112.785 196.639 112.785ZM196.639 113.684C196.062 113.684 195.662 114.143 195.672 114.836C195.662 115.549 196.062 115.998 196.639 115.988C197.205 115.998 197.605 115.549 197.605 114.836C197.605 114.143 197.205 113.684 196.639 113.684ZM202.068 110.041V118.869H201.033V114.553H200.174V118.469H199.158V110.227H200.174V113.674H201.033V110.041H202.068ZM210.037 110.041V113.557H211.395V114.455H210.037V118.869H208.963V110.041H210.037ZM208.279 111.398V112.268H203.074V111.398H205.164V110.168H206.248V111.398H208.279ZM205.711 112.844C206.98 112.844 207.928 113.703 207.928 114.924C207.928 116.145 206.98 116.994 205.711 116.994C204.422 116.994 203.475 116.145 203.484 114.924C203.475 113.703 204.422 112.844 205.711 112.844ZM205.711 113.732C205.018 113.732 204.52 114.201 204.52 114.924C204.52 115.646 205.018 116.105 205.711 116.096C206.385 116.105 206.883 115.646 206.893 114.924C206.883 114.201 206.385 113.732 205.711 113.732ZM218.973 110.852V111.701C218.963 112.795 218.963 114.025 218.621 115.871L217.527 115.754C217.869 114.035 217.869 112.78 217.879 111.721H212.605V110.852H218.973ZM219.812 116.838V117.727H211.766V116.838H214.734V113.771H215.809V116.838H219.812ZM230.398 110.041V118.869H229.363V110.041H230.398ZM228.572 110.256V118.449H227.537V115.5H226.16V114.611H227.537V113.303H226.316C225.901 114.768 224.979 116.027 223.328 117.004L222.693 116.232C224.524 115.153 225.364 113.771 225.525 111.994H223.162V111.115H226.6C226.6 111.56 226.57 111.994 226.512 112.414H227.537V110.256H228.572ZM238.777 110.051V116.496H237.684V110.051H238.777ZM239.021 117.814V118.693H232.938V115.881H234.031V117.814H239.021ZM234.715 111.398C234.715 112.629 235.438 113.791 236.834 114.26L236.277 115.119C235.271 114.768 234.554 114.064 234.168 113.166C233.768 114.128 233.04 114.899 232 115.275L231.434 114.416C232.869 113.908 233.592 112.668 233.592 111.398V110.539H234.715V111.398ZM246.98 110.041V113.488H248.289V114.396H246.98V118.85H245.896V110.041H246.98ZM244.646 110.959C244.646 113.557 243.572 115.832 240.633 117.277L240.018 116.438C242.166 115.368 243.328 113.864 243.553 111.857H240.496V110.959H244.646ZM256.775 116.906V117.795H248.709V116.906H250.574V114.67C249.871 114.27 249.446 113.64 249.451 112.854C249.441 111.447 250.828 110.52 252.723 110.52C254.627 110.52 256.014 111.447 256.014 112.854C256.014 113.625 255.604 114.245 254.92 114.65V116.906H256.775ZM252.723 111.379C251.404 111.379 250.506 111.936 250.516 112.854C250.506 113.762 251.404 114.328 252.723 114.328C254.041 114.328 254.949 113.762 254.949 112.854C254.949 111.936 254.041 111.379 252.723 111.379ZM251.648 116.906H253.816V115.061C253.479 115.139 253.113 115.178 252.723 115.178C252.342 115.178 251.98 115.139 251.648 115.07V116.906ZM258.846 115.832C258.855 114.592 259.207 114.211 259.822 113.83C260.242 113.566 260.555 113.234 260.555 112.746C260.555 112.199 260.135 111.848 259.598 111.848C259.109 111.848 258.641 112.16 258.611 112.814H257.391C257.42 111.506 258.406 110.832 259.607 110.832C260.926 110.832 261.834 111.564 261.834 112.727C261.834 113.518 261.434 114.035 260.799 114.416C260.232 114.758 259.998 115.1 259.988 115.832V115.92H258.846V115.832ZM259.451 118.078C259.031 118.078 258.689 117.736 258.689 117.316C258.689 116.906 259.031 116.564 259.451 116.564C259.852 116.564 260.203 116.906 260.203 117.316C260.203 117.736 259.852 118.078 259.451 118.078Z" fill="black"/>
<rect x="1" y="153" width="286.514" height="63" rx="30" fill="#F3F3F3"/>
<rect x="0.5" y="152.5" width="287.514" height="64" rx="30.5" stroke="#6E6E82" stroke-opacity="0.2"/>
<path d="M36.085 179.627H37.2471L37.8525 180.418C38.248 179.998 38.4873 179.339 38.4873 178.465C38.4873 176.854 37.6768 175.975 36.5244 175.975C35.3721 175.975 34.5615 176.854 34.5615 178.465C34.5615 180.076 35.3721 180.955 36.5244 180.955C36.71 180.955 36.8857 180.931 37.0518 180.887L36.085 179.627ZM39.7666 178.465C39.7666 179.749 39.3271 180.735 38.624 181.355L39.6006 182.615H38.3604L37.7744 181.863C37.3936 182.02 36.9736 182.098 36.5244 182.098C34.6689 182.098 33.2822 180.74 33.2822 178.465C33.2822 176.18 34.6689 174.832 36.5244 174.832C38.3799 174.832 39.7666 176.18 39.7666 178.465ZM41.1729 182.078C40.7529 182.078 40.4111 181.736 40.4111 181.316C40.4111 180.906 40.7529 180.564 41.1729 180.564C41.5732 180.564 41.9248 180.906 41.9248 181.316C41.9248 181.736 41.5732 182.078 41.1729 182.078ZM47.8525 174.432C49.1904 174.422 50.167 175.184 50.167 176.287C50.167 177.371 49.1904 178.143 47.8525 178.133C46.5244 178.143 45.5576 177.371 45.5576 176.287C45.5576 175.184 46.5244 174.422 47.8525 174.432ZM47.8525 175.311C47.1299 175.301 46.6025 175.682 46.6123 176.287C46.6025 176.883 47.1299 177.244 47.8525 177.244C48.6045 177.244 49.1318 176.883 49.1318 176.287C49.1318 175.682 48.6045 175.301 47.8525 175.311ZM52.3545 174.051V182.859H51.2803V174.051H52.3545ZM44.9814 178.738C46.5732 178.738 48.7998 178.709 50.7041 178.426L50.7822 179.227C50.0205 179.373 49.2295 179.466 48.458 179.52V182.596H47.3643V179.588C46.5488 179.622 45.7822 179.627 45.1182 179.637L44.9814 178.738ZM55.7334 174.178V174.871H59.542V174.178H60.6162V177.117H58.1553V177.791H61.6611V178.65H53.6143V177.791H57.0811V177.117H54.6592V174.178H55.7334ZM55.7334 176.307H59.542V175.662H55.7334V176.307ZM60.6553 179.207V181.346H55.6357V181.961H60.8994V182.791H54.5713V180.584H59.5908V180.008H54.5615V179.207H60.6553ZM69.5908 174.051V180.545H68.5166V174.051H69.5908ZM69.835 181.814V182.693H63.7119V180.018H64.8057V181.814H69.835ZM66.7783 174.646V177.371H63.79V178.484C65.3867 178.479 66.4365 178.431 67.6572 178.211L67.7744 179.08C66.4463 179.324 65.2842 179.373 63.4775 179.373H62.7256V176.551H65.7041V175.516H62.7061V174.646H66.7783ZM78.5166 174.041V182.869H77.4717V174.041H78.5166ZM76.7002 174.197V182.439H75.665V178.24H74.8252C74.7227 179.959 73.9854 181.023 72.8916 181.014C71.7393 181.023 70.9873 179.803 70.9873 177.859C70.9873 175.916 71.7393 174.715 72.8916 174.715C73.9609 174.715 74.6885 175.711 74.8154 177.361H75.665V174.197H76.7002ZM72.8916 175.74C72.335 175.73 71.9834 176.482 71.9932 177.859C71.9834 179.236 72.335 179.988 72.8916 179.979C73.4775 179.988 73.8291 179.236 73.8291 177.859C73.8291 176.482 73.4775 175.73 72.8916 175.74ZM82.8037 176.16C82.8037 177.801 83.585 179.412 84.9912 180.027L84.3369 180.896C83.3359 180.408 82.6328 179.471 82.2568 178.318C81.8711 179.534 81.1533 180.545 80.1377 181.062L79.4541 180.184C80.8896 179.51 81.6904 177.811 81.7002 176.16V174.754H82.8037V176.16ZM86.9443 174.041V182.879H85.8701V177.771H84.0146V176.893H85.8701V174.041H86.9443ZM95.333 176.541V177.4H89.2197V174.363H90.2939V176.541H95.333ZM96.2412 178.426V179.285H88.1748V178.426H96.2412ZM95.3916 181.785V182.664H89.1416V180.066H90.2256V181.785H95.3916ZM106.114 174.041V177.391H107.472V178.279H106.114V182.879H105.03V174.041H106.114ZM103.692 174.881V175.76H100.646V179.812C102.018 179.812 103.102 179.744 104.317 179.529L104.444 180.447C103.077 180.682 101.886 180.721 100.294 180.721H99.5615V174.881H103.692ZM116.007 175.223V176.111H114.806V177.117H116.007V178.016H114.806V179.227H113.722V174.041H114.806V175.223H116.007ZM110.323 174.549C111.681 174.539 112.696 175.408 112.706 176.658C112.696 177.898 111.681 178.768 110.323 178.777C108.956 178.768 107.931 177.898 107.94 176.658C107.931 175.408 108.956 174.539 110.323 174.549ZM110.323 175.457C109.562 175.457 108.995 175.936 109.005 176.658C108.995 177.391 109.562 177.85 110.323 177.859C111.075 177.85 111.642 177.391 111.642 176.658C111.642 175.936 111.075 175.457 110.323 175.457ZM111.935 179.432C113.741 179.432 114.884 180.076 114.894 181.15C114.884 182.225 113.741 182.859 111.935 182.859C110.108 182.859 108.946 182.225 108.946 181.15C108.946 180.076 110.108 179.432 111.935 179.432ZM111.935 180.301C110.724 180.301 110.03 180.594 110.03 181.15C110.03 181.707 110.724 181.99 111.935 181.99C113.146 181.99 113.819 181.707 113.819 181.15C113.819 180.594 113.146 180.301 111.935 180.301ZM123.448 174.051V176.824H124.679V177.723H123.448V180.643H122.364V174.051H123.448ZM121.729 175.027V175.896H116.495V175.027H118.575V174.041H119.659V175.027H121.729ZM119.112 176.258C120.382 176.258 121.261 176.932 121.271 177.947C121.261 178.953 120.382 179.617 119.112 179.617C117.833 179.617 116.944 178.953 116.944 177.947C116.944 176.932 117.833 176.258 119.112 176.258ZM119.112 177.098C118.438 177.098 117.999 177.41 117.999 177.947C117.999 178.475 118.438 178.787 119.112 178.777C119.786 178.787 120.235 178.475 120.235 177.947C120.235 177.41 119.786 177.098 119.112 177.098ZM123.8 181.814V182.693H117.794V180.125H118.878V181.814H123.8ZM134.708 174.852V175.701C134.698 176.795 134.698 178.025 134.356 179.871L133.263 179.754C133.604 178.035 133.604 176.78 133.614 175.721H128.341V174.852H134.708ZM135.548 180.838V181.727H127.501V180.838H130.47V177.771H131.544V180.838H135.548ZM143.692 174.051V179.227H142.657V177.029H141.729V179.188H140.704V174.217H141.729V176.141H142.657V174.051H143.692ZM143.692 179.588V182.869H142.608V180.467H137.608V179.588H143.692ZM139.991 174.666C140.001 176.854 138.888 178.377 136.612 179.305L136.095 178.494C137.813 177.84 138.712 176.839 138.888 175.545H136.495V174.666H139.991ZM151.642 174.627V178.465H147.462V174.627H151.642ZM148.526 175.496V177.596H150.577V175.496H148.526ZM154.122 174.041V176.023H155.353V176.922H154.122V179.021H153.038V174.041H154.122ZM154.249 179.471V180.33H151.905C152.076 181.082 153.077 181.79 154.62 182.01L154.229 182.84C152.853 182.645 151.803 182.054 151.3 181.258C150.787 182.054 149.757 182.64 148.38 182.82L147.979 182C149.537 181.79 150.514 181.102 150.694 180.33H148.341V179.471H154.249ZM163.849 178.328V179.188H160.353V179.959H162.872V182.762H156.749V179.959H159.278V179.188H155.802V178.328H163.849ZM160.353 174.031V174.822H163.058V175.682H160.431C160.558 176.404 161.598 177 163.448 177.127L163.136 177.928C161.539 177.806 160.367 177.337 159.815 176.59C159.259 177.337 158.087 177.806 156.505 177.928L156.183 177.127C158.043 177 159.068 176.404 159.2 175.682H156.593V174.822H159.278V174.031H160.353ZM157.823 180.828V181.883H161.817V180.828H157.823ZM169.396 174.92V175.779H164.464V174.92H166.437V173.963H167.521V174.92H169.396ZM166.964 176.131C168.165 176.131 169.024 176.795 169.034 177.781C169.024 178.758 168.165 179.412 166.964 179.412C165.763 179.412 164.913 178.758 164.923 177.781C164.913 176.795 165.763 176.131 166.964 176.131ZM166.964 176.941C166.339 176.941 165.929 177.254 165.938 177.781C165.929 178.299 166.339 178.602 166.964 178.602C167.589 178.602 168.019 178.299 168.019 177.781C168.019 177.254 167.589 176.941 166.964 176.941ZM171.837 174.041V179.695H170.753V178.66H169.444V177.791H170.753V176.922H169.454V176.043H170.753V174.041H171.837ZM168.868 179.793C170.733 179.793 171.886 180.359 171.886 181.326C171.886 182.283 170.733 182.859 168.868 182.859C167.003 182.859 165.851 182.283 165.851 181.326C165.851 180.359 167.003 179.793 168.868 179.793ZM168.868 180.623C167.677 180.623 166.993 180.857 166.993 181.326C166.993 181.785 167.677 182.029 168.868 182.029C170.05 182.029 170.724 181.785 170.724 181.326C170.724 180.857 170.05 180.623 168.868 180.623ZM180.011 176.707V177.732H183.507V178.602H175.46V177.732H178.937V176.707H180.011ZM180.021 174.354C180.021 175.359 181.183 176.199 183.067 176.385L182.687 177.215C181.207 177.029 180.035 176.473 179.474 175.613C178.897 176.473 177.73 177.029 176.251 177.215L175.87 176.385C177.755 176.199 178.917 175.359 178.917 174.354V174.119H180.021V174.354ZM182.501 179.139V181.326H177.481V181.961H182.745V182.791H176.417V180.555H181.437V179.969H176.407V179.139H182.501ZM191.222 174.344V176.854H186.153V177.732H191.417V178.602H185.06V176.033H190.108V175.223H185.04V174.344H191.222ZM192.159 179.354V180.223H188.653V182.879H187.569V180.223H184.093V179.354H192.159ZM195.958 175.604C195.958 176.844 196.651 178.064 198.009 178.572L197.403 179.412C196.461 179.041 195.787 178.304 195.421 177.391C195.04 178.367 194.327 179.144 193.312 179.539L192.726 178.68C194.132 178.172 194.854 176.922 194.864 175.604V174.549H195.958V175.604ZM200.138 174.051V180.604H199.054V177.869H197.442V177H199.054V176.131H197.442V175.252H199.054V174.051H200.138ZM200.333 181.814V182.693H194.317V179.959H195.421V181.814H200.333ZM205.401 174.178C207.413 174.178 208.575 174.715 208.585 175.691C208.575 176.678 207.413 177.205 205.401 177.215C203.39 177.205 202.218 176.678 202.218 175.691C202.218 174.715 203.39 174.178 205.401 174.178ZM205.401 174.979C204.054 174.979 203.351 175.232 203.36 175.691C203.351 176.18 204.054 176.404 205.401 176.404C206.769 176.404 207.462 176.18 207.462 175.691C207.462 175.232 206.769 174.979 205.401 174.979ZM209.435 177.684V178.553H201.388V177.684H209.435ZM208.429 179.148V181.307H203.409V181.961H208.673V182.791H202.345V180.535H207.364V179.949H202.335V179.148H208.429ZM220.001 174.041V182.869H218.966V174.041H220.001ZM218.204 174.207V182.439H217.179V177.996H215.909V177.117H217.179V174.207H218.204ZM215.128 176.453C215.128 177.947 215.665 179.441 216.925 180.164L216.28 180.965C215.465 180.477 214.923 179.637 214.62 178.631C214.308 179.72 213.746 180.647 212.911 181.17L212.247 180.359C213.526 179.588 214.083 177.986 214.083 176.453V175.867H212.55V174.988H216.554V175.867H215.128V176.453ZM225.021 179.559C226.935 179.568 228.146 180.174 228.155 181.219C228.146 182.244 226.935 182.859 225.021 182.859C223.116 182.859 221.896 182.244 221.896 181.219C221.896 180.174 223.116 179.568 225.021 179.559ZM225.021 180.379C223.751 180.379 222.979 180.682 222.989 181.219C222.979 181.736 223.751 182.02 225.021 182.02C226.3 182.02 227.071 181.736 227.081 181.219C227.071 180.682 226.3 180.379 225.021 180.379ZM228.097 174.461V175.193C228.097 175.887 228.097 176.629 227.853 177.537L226.778 177.439C226.998 176.58 227.013 175.96 227.013 175.32H221.983V174.461H228.097ZM229.073 178.045V178.924H221.065V178.045H224.171V176.443H225.245V178.045H229.073ZM236.651 174.041V176.219H237.882V177.117H236.651V179.197H235.567V174.041H236.651ZM232.022 179.549V180.311H235.567V179.549H236.651V182.762H230.948V179.549H232.022ZM232.022 181.902H235.567V181.15H232.022V181.902ZM234.933 174.861V175.73H229.698V174.861H231.778V173.973H232.862V174.861H234.933ZM232.315 176.033C233.595 176.033 234.464 176.648 234.474 177.586C234.464 178.523 233.595 179.139 232.315 179.139C231.026 179.139 230.147 178.523 230.147 177.586C230.147 176.648 231.026 176.033 232.315 176.033ZM232.315 176.834C231.642 176.834 231.202 177.117 231.202 177.586C231.202 178.064 231.642 178.338 232.315 178.338C232.989 178.338 233.438 178.064 233.438 177.586C233.438 177.117 232.989 176.834 232.315 176.834ZM245.694 174.041V182.869H244.62V174.041H245.694ZM239.913 174.9V179.725C241.153 179.705 242.472 179.593 243.829 179.324L243.966 180.232C242.413 180.555 240.968 180.652 239.601 180.652H238.839V174.9H239.913ZM253.888 174.041V177.391H255.245V178.279H253.888V182.879H252.804V174.041H253.888ZM251.466 174.881V175.76H248.419V179.812C249.791 179.812 250.875 179.744 252.091 179.529L252.218 180.447C250.851 180.682 249.659 180.721 248.067 180.721H247.335V174.881H251.466ZM256.69 182.078C256.271 182.078 255.929 181.736 255.929 181.316C255.929 180.906 256.271 180.564 256.69 180.564C257.091 180.564 257.442 180.906 257.442 181.316C257.442 181.736 257.091 182.078 256.69 182.078ZM22.0176 189.852V190.701C22.0078 191.795 22.0078 193.025 21.666 194.871L20.5723 194.754C20.9141 193.035 20.9141 191.78 20.9238 190.721H15.6504V189.852H22.0176ZM22.8574 195.838V196.727H14.8105V195.838H17.7793V192.771H18.8535V195.838H22.8574ZM31.002 189.051V194.227H29.9668V192.029H29.0391V194.188H28.0137V189.217H29.0391V191.141H29.9668V189.051H31.002ZM31.002 194.588V197.869H29.918V195.467H24.918V194.588H31.002ZM27.3008 189.666C27.3105 191.854 26.1973 193.377 23.9219 194.305L23.4043 193.494C25.123 192.84 26.0215 191.839 26.1973 190.545H23.8047V189.666H27.3008ZM34.957 189.656C36.3535 189.646 37.3789 190.535 37.3887 191.785C37.3789 193.045 36.3535 193.924 34.957 193.924C33.5703 193.924 32.5352 193.045 32.5352 191.785C32.5352 190.535 33.5703 189.646 34.957 189.656ZM34.957 190.594C34.1855 190.594 33.6094 191.053 33.6094 191.785C33.6094 192.527 34.1855 192.977 34.957 192.977C35.7383 192.977 36.3242 192.527 36.3242 191.785C36.3242 191.053 35.7383 190.594 34.957 190.594ZM39.4492 189.041V197.879H38.3652V189.041H39.4492ZM32.1348 195.145C33.7266 195.145 35.9336 195.125 37.8379 194.852L37.9258 195.643C35.9434 196.023 33.8242 196.033 32.2715 196.033L32.1348 195.145ZM51.1777 195.906V196.795H43.1113V195.906H44.9766V193.67C44.2734 193.27 43.8486 192.64 43.8535 191.854C43.8438 190.447 45.2305 189.52 47.125 189.52C49.0293 189.52 50.416 190.447 50.416 191.854C50.416 192.625 50.0059 193.245 49.3223 193.65V195.906H51.1777ZM47.125 190.379C45.8066 190.379 44.9082 190.936 44.918 191.854C44.9082 192.762 45.8066 193.328 47.125 193.328C48.4434 193.328 49.3516 192.762 49.3516 191.854C49.3516 190.936 48.4434 190.379 47.125 190.379ZM46.0508 195.906H48.2188V194.061C47.8818 194.139 47.5156 194.178 47.125 194.178C46.7441 194.178 46.3828 194.139 46.0508 194.07V195.906ZM58.8145 189.578V190.369C58.8145 191.194 58.8145 192.098 58.5801 193.348H59.8008V194.227H56.2949V197.879H55.2012V194.227H51.7539V193.348H57.4766C57.7207 192.146 57.7305 191.248 57.7305 190.457H52.7012V189.578H58.8145ZM63.5508 191.16C63.541 192.732 64.332 194.334 65.6992 194.988L65.0352 195.857C64.0781 195.374 63.3896 194.441 63.0137 193.318C62.6279 194.52 61.9053 195.516 60.8945 196.023L60.2305 195.154C61.6465 194.48 62.457 192.791 62.4668 191.16V189.754H63.5508V191.16ZM67.3105 189.041V192.498H68.668V193.426H67.3105V197.869H66.2266V189.041H67.3105ZM76.002 189.041V191.365H77.2324V192.273H76.002V194.676H74.918V189.041H76.002ZM73.1504 194.754C74.957 194.754 76.0996 195.33 76.0996 196.307C76.0996 197.273 74.957 197.859 73.1504 197.859C71.3145 197.859 70.1914 197.273 70.2012 196.307C70.1914 195.33 71.3145 194.754 73.1504 194.754ZM73.1504 195.584C71.9395 195.584 71.2656 195.818 71.2754 196.307C71.2656 196.775 71.9395 197.039 73.1504 197.039C74.3418 197.039 75.0156 196.775 75.0156 196.307C75.0156 195.818 74.3418 195.584 73.1504 195.584ZM74.2832 189.939V190.789H69.0488V189.939H71.1289V188.982H72.2129V189.939H74.2832ZM71.666 191.141C72.9453 191.141 73.8145 191.775 73.8242 192.723C73.8145 193.67 72.9453 194.295 71.666 194.295C70.377 194.295 69.498 193.67 69.498 192.723C69.498 191.775 70.377 191.141 71.666 191.141ZM71.666 191.941C70.9922 191.941 70.5527 192.234 70.5527 192.723C70.5527 193.201 70.9922 193.475 71.666 193.475C72.3398 193.475 72.7891 193.201 72.7891 192.723C72.7891 192.234 72.3398 191.941 71.666 191.941ZM85.0254 189.041V197.879H83.9316V189.041H85.0254ZM80.2695 189.686C81.5977 189.686 82.5645 190.896 82.5742 192.801C82.5645 194.725 81.5977 195.926 80.2695 195.926C78.9316 195.926 77.9648 194.725 77.9648 192.801C77.9648 190.896 78.9316 189.686 80.2695 189.686ZM80.2695 190.662C79.5176 190.662 79.0098 191.453 79.0098 192.801C79.0098 194.158 79.5176 194.949 80.2695 194.949C81.0117 194.949 81.5195 194.158 81.5195 192.801C81.5195 191.453 81.0117 190.662 80.2695 190.662ZM90.2207 189.676V191.014H92.3203V189.676H93.4043V194.1H89.1465V189.676H90.2207ZM90.2207 193.24H92.3203V191.854H90.2207V193.24ZM96.0508 189.051V195.545H94.957V189.051H96.0508ZM96.2559 196.814V197.693H90.1719V194.881H91.2656V196.814H96.2559ZM104.732 189.051V195.564H103.648V192.312H101.871V194.129H97.7402V189.627H98.8242V191.053H100.797V189.627H101.871V191.434H103.648V189.051H104.732ZM104.928 196.814V197.693H98.9121V194.92H100.016V196.814H104.928ZM98.8242 193.27H100.797V191.893H98.8242V193.27ZM112.896 189.041V192.557H114.254V193.455H112.896V197.869H111.822V189.041H112.896ZM111.139 190.398V191.268H105.934V190.398H108.023V189.168H109.107V190.398H111.139ZM108.57 191.844C109.84 191.844 110.787 192.703 110.787 193.924C110.787 195.145 109.84 195.994 108.57 195.994C107.281 195.994 106.334 195.145 106.344 193.924C106.334 192.703 107.281 191.844 108.57 191.844ZM108.57 192.732C107.877 192.732 107.379 193.201 107.379 193.924C107.379 194.646 107.877 195.105 108.57 195.096C109.244 195.105 109.742 194.646 109.752 193.924C109.742 193.201 109.244 192.732 108.57 192.732ZM122.242 189.041V197.869H121.207V189.041H122.242ZM120.367 189.256V197.449H119.342V193.387H117.77C117.252 194.402 116.422 195.281 115.172 196.004L114.557 195.232C116.388 194.153 117.223 192.771 117.389 190.994H115.006V190.115H118.463C118.463 190.97 118.36 191.771 118.121 192.518H119.342V189.256H120.367ZM133.033 189.051V195.564H131.949V193.348H130.172V194.129H126.041V189.627H127.125V191.053H129.098V189.627H130.172V190.574H131.949V189.051H133.033ZM133.229 196.814V197.693H127.213V194.92H128.316V196.814H133.229ZM127.125 193.27H129.098V191.893H127.125V193.27ZM130.172 192.469H131.949V191.453H130.172V192.469ZM141.676 189.051V194.207H140.592V193.23H138.492V192.352H140.592V191.404H138.58C138.019 192.811 136.734 193.792 134.811 194.324L134.371 193.465C136.437 192.903 137.535 191.858 137.711 190.545H134.84V189.666H138.893C138.893 189.974 138.868 190.267 138.814 190.545H140.592V189.051H141.676ZM138.756 194.305C140.543 194.305 141.734 194.979 141.734 196.062C141.734 197.146 140.543 197.82 138.756 197.82C136.949 197.82 135.758 197.146 135.758 196.062C135.758 194.979 136.949 194.305 138.756 194.305ZM138.756 195.154C137.564 195.154 136.842 195.477 136.842 196.062C136.842 196.639 137.564 196.961 138.756 196.961C139.918 196.961 140.65 196.639 140.65 196.062C140.65 195.477 139.918 195.154 138.756 195.154ZM148.062 191.199V192.029H146.432V192.703C147.188 192.674 147.936 192.62 148.648 192.547L148.707 193.279C146.832 193.562 144.781 193.611 143.102 193.611L142.975 192.771C143.707 192.771 144.508 192.767 145.328 192.742V192.029H143.766V189.412H147.975V190.232H144.879V191.199H148.062ZM150.299 189.051V193.729H149.225V189.051H150.299ZM150.299 194.07V196.297H145.416V196.932H150.553V197.791H144.352V195.506H149.225V194.91H144.332V194.07H150.299ZM161.334 189.051V194.207H160.25V193.23H158.15V192.352H160.25V191.404H158.238C157.677 192.811 156.393 193.792 154.469 194.324L154.029 193.465C156.095 192.903 157.193 191.858 157.369 190.545H154.498V189.666H158.551C158.551 189.974 158.526 190.267 158.473 190.545H160.25V189.051H161.334ZM158.414 194.305C160.201 194.305 161.393 194.979 161.393 196.062C161.393 197.146 160.201 197.82 158.414 197.82C156.607 197.82 155.416 197.146 155.416 196.062C155.416 194.979 156.607 194.305 158.414 194.305ZM158.414 195.154C157.223 195.154 156.5 195.477 156.5 196.062C156.5 196.639 157.223 196.961 158.414 196.961C159.576 196.961 160.309 196.639 160.309 196.062C160.309 195.477 159.576 195.154 158.414 195.154ZM170.641 194.012V194.91H167.125V197.869H166.051V194.91H162.574V194.012H170.641ZM166.588 189.354C168.463 189.363 169.771 190.125 169.771 191.336C169.771 192.537 168.463 193.289 166.588 193.289C164.703 193.289 163.414 192.537 163.424 191.336C163.414 190.125 164.703 189.363 166.588 189.354ZM166.588 190.232C165.338 190.232 164.527 190.643 164.537 191.336C164.527 192.02 165.338 192.43 166.588 192.43C167.838 192.43 168.648 192.02 168.648 191.336C168.648 190.643 167.838 190.232 166.588 190.232ZM172.945 196.307L172.125 199.041H171.197L171.705 196.307H172.945ZM178.561 189.686C179.757 189.686 180.641 190.682 180.797 192.293H182.477V189.041H183.551V197.879H182.477V193.172H180.807C180.689 194.876 179.791 195.926 178.561 195.926C177.232 195.926 176.295 194.725 176.295 192.801C176.295 190.896 177.232 189.686 178.561 189.686ZM178.561 190.662C177.828 190.662 177.33 191.453 177.34 192.801C177.33 194.158 177.828 194.949 178.561 194.949C179.293 194.949 179.781 194.158 179.791 192.801C179.781 191.453 179.293 190.662 178.561 190.662ZM192.408 194.227V195.057H185.953V194.227H188.648V193.475H189.732V194.227H192.408ZM189.166 195.369C190.777 195.369 191.734 195.818 191.734 196.609C191.734 197.43 190.777 197.869 189.166 197.869C187.555 197.869 186.588 197.43 186.598 196.609C186.588 195.818 187.555 195.369 189.166 195.369ZM189.166 196.121C188.258 196.131 187.75 196.287 187.75 196.609C187.75 196.951 188.258 197.117 189.166 197.117C190.064 197.117 190.562 196.951 190.572 196.609C190.562 196.287 190.064 196.131 189.166 196.121ZM187.252 189.432V190.281H186.031V192.312C186.451 192.293 186.876 192.249 187.35 192.146L187.428 192.996C186.656 193.152 186.07 193.162 185.377 193.162H184.967V189.432H187.252ZM190.162 189.432V190.281H188.766V192.312C189.444 192.303 189.894 192.259 190.416 192.137L190.504 192.996C189.82 193.152 189.254 193.162 188.15 193.162H187.691V189.432H190.162ZM192.262 189.041V193.748H191.197V191.629H189.859V190.799H191.197V189.041H192.262ZM201.051 189.041V197.869H200.016V189.041H201.051ZM199.176 189.256V197.449H198.15V193.387H196.578C196.061 194.402 195.23 195.281 193.98 196.004L193.365 195.232C195.196 194.153 196.031 192.771 196.197 190.994H193.814V190.115H197.271C197.271 190.97 197.169 191.771 196.93 192.518H198.15V189.256H199.176ZM212.047 189.041V197.869H211.012V193.367H210.016V197.42H209.02V189.207H210.016V192.498H211.012V189.041H212.047ZM208.023 190.086V190.965H205.816V194.891C206.778 194.881 207.569 194.832 208.463 194.666L208.541 195.555C207.477 195.77 206.549 195.799 205.318 195.809H204.723V190.086H208.023ZM221.139 193.23V194.09H213.092V193.23H221.139ZM217.105 194.666C219.01 194.656 220.152 195.232 220.162 196.268C220.152 197.293 219.01 197.869 217.105 197.869C215.182 197.869 214.029 197.293 214.029 196.268C214.029 195.232 215.182 194.656 217.105 194.666ZM217.105 195.486C215.816 195.486 215.123 195.75 215.133 196.268C215.123 196.775 215.816 197.029 217.105 197.029C218.365 197.029 219.068 196.775 219.078 196.268C219.068 195.75 218.365 195.486 217.105 195.486ZM217.105 189.246C219.039 189.246 220.279 189.9 220.289 190.955C220.279 192.029 219.039 192.664 217.105 192.664C215.172 192.664 213.922 192.029 213.922 190.955C213.922 189.9 215.172 189.246 217.105 189.246ZM217.105 190.096C215.816 190.096 215.045 190.389 215.055 190.955C215.045 191.521 215.816 191.814 217.105 191.814C218.395 191.814 219.166 191.521 219.166 190.955C219.166 190.389 218.395 190.096 217.105 190.096ZM228.648 189.041V192.557H230.006V193.455H228.648V197.869H227.574V189.041H228.648ZM226.891 190.398V191.268H221.686V190.398H223.775V189.168H224.859V190.398H226.891ZM224.322 191.844C225.592 191.844 226.539 192.703 226.539 193.924C226.539 195.145 225.592 195.994 224.322 195.994C223.033 195.994 222.086 195.145 222.096 193.924C222.086 192.703 223.033 191.844 224.322 191.844ZM224.322 192.732C223.629 192.732 223.131 193.201 223.131 193.924C223.131 194.646 223.629 195.105 224.322 195.096C224.996 195.105 225.494 194.646 225.504 193.924C225.494 193.201 224.996 192.732 224.322 192.732ZM233.717 191.16C233.707 192.781 234.557 194.402 235.992 195.018L235.348 195.887C234.332 195.418 233.585 194.48 233.18 193.328C232.774 194.573 232.018 195.589 230.943 196.092L230.279 195.184C231.754 194.549 232.613 192.859 232.613 191.16V189.754H233.717V191.16ZM237.721 189.041V197.879H236.627V189.041H237.721ZM242.926 189.666C242.926 190.306 242.833 190.892 242.643 191.424H243.727V189.227H244.752V193.973H243.727V192.293H242.213C241.666 193.143 240.797 193.816 239.596 194.324L239.059 193.514C240.743 192.854 241.617 191.863 241.803 190.545H239.479V189.666H242.926ZM246.568 189.051V194.1H245.533V189.051H246.568ZM242.223 194.842C242.213 195.579 242.55 196.346 243.307 196.834C244.073 196.307 244.42 195.501 244.43 194.842V194.373H245.494V194.842C245.494 195.76 246.041 196.648 247.203 197.01L246.676 197.811C245.812 197.513 245.245 196.941 244.938 196.229C244.654 196.932 244.137 197.552 243.326 197.879C242.491 197.566 241.969 196.961 241.695 196.248C241.383 196.937 240.826 197.508 240.006 197.811L239.459 197.01C240.611 196.619 241.178 195.701 241.178 194.842V194.373H242.223V194.842ZM249.703 194.334V195.174H253.59V194.334H254.674V197.762H248.629V194.334H249.703ZM249.703 196.902H253.59V196.004H249.703V196.902ZM255.709 192.947V193.836H247.662V192.947H255.709ZM252.242 189.471C252.242 190.418 253.453 191.414 255.279 191.629L254.898 192.488C253.419 192.288 252.252 191.634 251.686 190.74C251.114 191.639 249.942 192.288 248.473 192.488L248.072 191.629C249.918 191.404 251.119 190.447 251.129 189.471V189.139H252.242V189.471ZM263.668 189.041V197.869H262.594V189.041H263.668ZM257.887 189.9V194.725C259.127 194.705 260.445 194.593 261.803 194.324L261.939 195.232C260.387 195.555 258.941 195.652 257.574 195.652H256.812V189.9H257.887ZM271.988 189.041V192.566H273.209V193.465H271.988V197.869H270.895V189.041H271.988ZM267.594 189.969C267.584 192.283 267.262 194.236 265.67 195.955L264.82 195.34C266.065 194.021 266.471 192.625 266.559 190.857H265.172V189.969H267.594ZM270.035 189.969C270.025 192.342 269.781 194.607 268.189 196.521L267.32 195.926C268.58 194.427 268.932 192.771 269.01 190.857H267.887V189.969H270.035ZM275.084 194.832C275.094 193.592 275.445 193.211 276.061 192.83C276.48 192.566 276.793 192.234 276.793 191.746C276.793 191.199 276.373 190.848 275.836 190.848C275.348 190.848 274.879 191.16 274.85 191.814H273.629C273.658 190.506 274.645 189.832 275.846 189.832C277.164 189.832 278.072 190.564 278.072 191.727C278.072 192.518 277.672 193.035 277.037 193.416C276.471 193.758 276.236 194.1 276.227 194.832V194.92H275.084V194.832ZM275.689 197.078C275.27 197.078 274.928 196.736 274.928 196.316C274.928 195.906 275.27 195.564 275.689 195.564C276.09 195.564 276.441 195.906 276.441 196.316C276.441 196.736 276.09 197.078 275.689 197.078Z" fill="black"/>
<rect x="1" y="231" width="286.514" height="63" rx="30" fill="#F3F3F3"/>
<rect x="0.5" y="230.5" width="287.514" height="64" rx="30.5" stroke="#6E6E82" stroke-opacity="0.2"/>
<path d="M29.7344 261.627H30.8965L31.502 262.418C31.8975 261.998 32.1367 261.339 32.1367 260.465C32.1367 258.854 31.3262 257.975 30.1738 257.975C29.0215 257.975 28.2109 258.854 28.2109 260.465C28.2109 262.076 29.0215 262.955 30.1738 262.955C30.3594 262.955 30.5352 262.931 30.7012 262.887L29.7344 261.627ZM33.416 260.465C33.416 261.749 32.9766 262.735 32.2734 263.355L33.25 264.615H32.0098L31.4238 263.863C31.043 264.02 30.623 264.098 30.1738 264.098C28.3184 264.098 26.9316 262.74 26.9316 260.465C26.9316 258.18 28.3184 256.832 30.1738 256.832C32.0293 256.832 33.416 258.18 33.416 260.465ZM34.8223 264.078C34.4023 264.078 34.0605 263.736 34.0605 263.316C34.0605 262.906 34.4023 262.564 34.8223 262.564C35.2227 262.564 35.5742 262.906 35.5742 263.316C35.5742 263.736 35.2227 264.078 34.8223 264.078ZM43.5723 256.852V257.711H38.6406V256.852H40.6133V255.973H41.6973V256.852H43.5723ZM41.1406 258.023C42.3418 258.023 43.2012 258.678 43.2109 259.625C43.2012 260.582 42.3418 261.217 41.1406 261.217C39.9395 261.217 39.0898 260.582 39.0996 259.625C39.0898 258.678 39.9395 258.023 41.1406 258.023ZM41.1406 258.844C40.5156 258.844 40.1055 259.137 40.1152 259.625C40.1055 260.113 40.5156 260.426 41.1406 260.426C41.7656 260.426 42.1953 260.113 42.1953 259.625C42.1953 259.137 41.7656 258.844 41.1406 258.844ZM46.0137 256.041V261.285H44.9297V260.592H43.6211V259.723H44.9297V258.863H43.6309V257.984H44.9297V256.041H46.0137ZM41.2188 261.627V262.369H44.9395V261.627H46.0137V264.762H40.1348V261.627H41.2188ZM41.2188 263.912H44.9395V263.189H41.2188V263.912ZM49.7148 256.432C50.8574 256.422 51.7559 257.081 51.9805 258.053H53.5723V256.041H54.6562V260.777H53.5723V258.932H51.9902C51.7705 259.923 50.8623 260.592 49.7148 260.592C48.3574 260.592 47.3809 259.723 47.3809 258.502C47.3809 257.301 48.3574 256.422 49.7148 256.432ZM49.7148 257.34C48.9531 257.34 48.416 257.789 48.416 258.502C48.416 259.205 48.9531 259.674 49.7148 259.674C50.457 259.674 50.9844 259.205 50.9941 258.502C50.9844 257.789 50.457 257.34 49.7148 257.34ZM49.9102 261.188V262.125H53.5723V261.188H54.6562V264.762H48.8359V261.188H49.9102ZM49.9102 263.883H53.5723V262.965H49.9102V263.883ZM65.2715 256.041V259H66.4629V259.898H65.2715V262.936H64.1875V256.041H65.2715ZM65.584 263.814V264.693H59.4707V262.477H60.5547V263.814H65.584ZM58.2012 261.168C58.8604 261.168 59.627 261.163 60.4277 261.129V260.572C59.4463 260.455 58.8262 259.972 58.8262 259.264C58.8262 258.395 59.6758 257.887 60.9551 257.896C62.2441 257.887 63.084 258.395 63.084 259.264C63.084 259.967 62.4785 260.445 61.5117 260.572V261.08C62.2637 261.041 63.0205 260.973 63.7285 260.865L63.8164 261.627C61.9512 261.979 59.8418 261.998 58.3184 262.018L58.2012 261.168ZM63.4941 256.812V257.604H58.4258V256.812H60.4277V256.012H61.5117V256.812H63.4941ZM60.9551 258.629C60.2715 258.629 59.8613 258.854 59.8711 259.264C59.8613 259.645 60.2715 259.869 60.9551 259.869C61.6387 259.869 62.0488 259.645 62.0488 259.264C62.0488 258.854 61.6387 258.629 60.9551 258.629ZM74.3145 256.051V261.207H73.2305V260.23H71.1309V259.352H73.2305V258.404H71.2188C70.6572 259.811 69.373 260.792 67.4492 261.324L67.0098 260.465C69.0752 259.903 70.1738 258.858 70.3496 257.545H67.4785V256.666H71.5312C71.5312 256.974 71.5068 257.267 71.4531 257.545H73.2305V256.051H74.3145ZM71.3945 261.305C73.1816 261.305 74.373 261.979 74.373 263.062C74.373 264.146 73.1816 264.82 71.3945 264.82C69.5879 264.82 68.3965 264.146 68.3965 263.062C68.3965 261.979 69.5879 261.305 71.3945 261.305ZM71.3945 262.154C70.2031 262.154 69.4805 262.477 69.4805 263.062C69.4805 263.639 70.2031 263.961 71.3945 263.961C72.5566 263.961 73.2891 263.639 73.2891 263.062C73.2891 262.477 72.5566 262.154 71.3945 262.154ZM83.1816 256.041V264.869H82.1367V256.041H83.1816ZM81.3652 256.197V264.439H80.3301V260.24H79.4902C79.3877 261.959 78.6504 263.023 77.5566 263.014C76.4043 263.023 75.6523 261.803 75.6523 259.859C75.6523 257.916 76.4043 256.715 77.5566 256.715C78.626 256.715 79.3535 257.711 79.4805 259.361H80.3301V256.197H81.3652ZM77.5566 257.74C77 257.73 76.6484 258.482 76.6582 259.859C76.6484 261.236 77 261.988 77.5566 261.979C78.1426 261.988 78.4941 261.236 78.4941 259.859C78.4941 258.482 78.1426 257.73 77.5566 257.74ZM87.4688 258.16C87.4688 259.801 88.25 261.412 89.6562 262.027L89.002 262.896C88.001 262.408 87.2979 261.471 86.9219 260.318C86.5361 261.534 85.8184 262.545 84.8027 263.062L84.1191 262.184C85.5547 261.51 86.3555 259.811 86.3652 258.16V256.754H87.4688V258.16ZM91.6094 256.041V264.879H90.5352V259.771H88.6797V258.893H90.5352V256.041H91.6094ZM96.5996 256.432V257.555H98.6602V256.432H99.7344V260.279H95.5254V256.432H96.5996ZM96.5996 259.42H98.6602V258.375H96.5996V259.42ZM102.186 256.041V257.828H103.416V258.707H102.186V260.562H101.102V256.041H102.186ZM102.186 260.914V263.229H97.498V263.932H102.459V264.791H96.4238V262.438H101.102V261.764H96.4141V260.914H102.186ZM106.619 257.682C106.619 258.639 107.176 259.596 108.338 260.035L107.762 260.865C106.976 260.562 106.429 260.001 106.111 259.312C105.789 260.104 105.213 260.777 104.373 261.129L103.787 260.299C104.998 259.762 105.564 258.658 105.574 257.682V256.588H106.619V257.682ZM111.414 256.051V261.461H110.379V259.166H109.5V261.188H108.484V256.217H109.5V258.277H110.379V256.051H111.414ZM108.436 261.607C110.281 261.607 111.453 262.213 111.463 263.229C111.453 264.244 110.281 264.859 108.436 264.859C106.57 264.859 105.408 264.244 105.408 263.229C105.408 262.213 106.57 261.607 108.436 261.607ZM108.436 262.428C107.215 262.428 106.492 262.711 106.492 263.229C106.492 263.756 107.215 264.029 108.436 264.029C109.646 264.029 110.369 263.756 110.369 263.229C110.369 262.711 109.646 262.428 108.436 262.428ZM119.471 256.021V258.014H120.711V258.893H119.471V260.836H118.387V256.021H119.471ZM119.471 261.227V263.355H114.783V263.98H119.744V264.791H113.709V262.604H118.387V262.018H113.699V261.227H119.471ZM117.752 256.754V257.584H112.518V256.754H114.598V255.973H115.682V256.754H117.752ZM115.135 257.857C116.443 257.867 117.283 258.424 117.293 259.303C117.283 260.211 116.443 260.748 115.135 260.748C113.826 260.748 112.967 260.211 112.967 259.303C112.967 258.424 113.826 257.867 115.135 257.857ZM115.135 258.639C114.451 258.639 114.021 258.883 114.021 259.303C114.021 259.732 114.451 259.967 115.135 259.967C115.818 259.967 116.258 259.732 116.258 259.303C116.258 258.883 115.818 258.639 115.135 258.639ZM128.123 256.773C128.123 257.887 129.363 259.01 131.248 259.254L130.818 260.133C129.319 259.908 128.128 259.171 127.557 258.17C126.976 259.171 125.789 259.908 124.305 260.133L123.875 259.254C125.74 259.01 126.98 257.887 126.98 256.773V256.324H128.123V256.773ZM131.57 260.895V261.793H128.064V264.869H126.99V261.793H123.523V260.895H131.57ZM137.674 261.783C137.674 262.516 138.011 263.287 138.768 263.766C139.534 263.253 139.891 262.452 139.9 261.783V261.422H140.965V261.783C140.955 262.711 141.502 263.57 142.664 263.941L142.137 264.732C141.277 264.444 140.706 263.883 140.398 263.18C140.115 263.873 139.593 264.493 138.797 264.811C137.957 264.508 137.43 263.912 137.156 263.209C136.839 263.888 136.277 264.439 135.457 264.732L134.92 263.941C136.062 263.541 136.609 262.643 136.619 261.783V261.422H137.674V261.783ZM141.893 256.051V261.051H140.799V256.051H141.893ZM137.078 256.52C138.436 256.52 139.451 257.379 139.451 258.619C139.451 259.85 138.436 260.709 137.078 260.709C135.711 260.709 134.695 259.85 134.695 258.619C134.695 257.379 135.711 256.52 137.078 256.52ZM137.078 257.438C136.307 257.438 135.75 257.896 135.76 258.619C135.75 259.342 136.307 259.811 137.078 259.811C137.84 259.811 138.387 259.342 138.387 258.619C138.387 257.896 137.84 257.438 137.078 257.438ZM150.33 258.541V259.4H144.217V256.363H145.291V258.541H150.33ZM151.238 260.426V261.285H143.172V260.426H151.238ZM150.389 263.785V264.664H144.139V262.066H145.223V263.785H150.389ZM162.244 260.328V261.178H158.748V261.891C160.34 261.988 161.258 262.501 161.268 263.375C161.258 264.332 160.135 264.859 158.211 264.859C156.277 264.859 155.135 264.332 155.135 263.375C155.135 262.501 156.067 261.988 157.674 261.891V261.178H154.197V260.328H162.244ZM158.748 256.061V256.861H161.453V257.721H158.836C158.992 258.438 160.032 259.024 161.844 259.156L161.512 259.977C159.93 259.854 158.763 259.361 158.211 258.6C157.659 259.361 156.482 259.854 154.91 259.977L154.578 259.156C156.38 259.024 157.42 258.438 157.586 257.721H154.988V256.861H157.674V256.061H158.748ZM158.211 262.691C156.912 262.691 156.229 262.916 156.238 263.375C156.229 263.824 156.912 264.049 158.211 264.049C159.48 264.049 160.174 263.824 160.184 263.375C160.174 262.916 159.48 262.691 158.211 262.691ZM169.939 258.189V259.049H167.4V259.723H170.887V260.582H162.84V259.723H166.316V259.049H163.865V256.354H169.861V257.232H164.949V258.189H169.939ZM169.881 261.148V263.297H164.861V263.951H170.125V264.781H163.797V262.535H168.816V261.949H163.787V261.148H169.881ZM175.496 256.178C177.508 256.178 178.67 256.715 178.68 257.691C178.67 258.678 177.508 259.205 175.496 259.215C173.484 259.205 172.312 258.678 172.312 257.691C172.312 256.715 173.484 256.178 175.496 256.178ZM175.496 256.979C174.148 256.979 173.445 257.232 173.455 257.691C173.445 258.18 174.148 258.404 175.496 258.404C176.863 258.404 177.557 258.18 177.557 257.691C177.557 257.232 176.863 256.979 175.496 256.979ZM179.529 259.684V260.553H171.482V259.684H179.529ZM178.523 261.148V263.307H173.504V263.961H178.768V264.791H172.439V262.535H177.459V261.949H172.43V261.148H178.523ZM184.91 256.686C186.106 256.686 186.99 257.682 187.146 259.293H188.826V256.041H189.9V264.879H188.826V260.172H187.156C187.039 261.876 186.141 262.926 184.91 262.926C183.582 262.926 182.645 261.725 182.645 259.801C182.645 257.896 183.582 256.686 184.91 256.686ZM184.91 257.662C184.178 257.662 183.68 258.453 183.689 259.801C183.68 261.158 184.178 261.949 184.91 261.949C185.643 261.949 186.131 261.158 186.141 259.801C186.131 258.453 185.643 257.662 184.91 257.662ZM198.758 261.227V262.057H192.303V261.227H194.998V260.475H196.082V261.227H198.758ZM195.516 262.369C197.127 262.369 198.084 262.818 198.084 263.609C198.084 264.43 197.127 264.869 195.516 264.869C193.904 264.869 192.938 264.43 192.947 263.609C192.938 262.818 193.904 262.369 195.516 262.369ZM195.516 263.121C194.607 263.131 194.1 263.287 194.1 263.609C194.1 263.951 194.607 264.117 195.516 264.117C196.414 264.117 196.912 263.951 196.922 263.609C196.912 263.287 196.414 263.131 195.516 263.121ZM193.602 256.432V257.281H192.381V259.312C192.801 259.293 193.226 259.249 193.699 259.146L193.777 259.996C193.006 260.152 192.42 260.162 191.727 260.162H191.316V256.432H193.602ZM196.512 256.432V257.281H195.115V259.312C195.794 259.303 196.243 259.259 196.766 259.137L196.854 259.996C196.17 260.152 195.604 260.162 194.5 260.162H194.041V256.432H196.512ZM198.611 256.041V260.748H197.547V258.629H196.209V257.799H197.547V256.041H198.611ZM207.4 256.041V264.869H206.365V256.041H207.4ZM205.525 256.256V264.449H204.5V260.387H202.928C202.41 261.402 201.58 262.281 200.33 263.004L199.715 262.232C201.546 261.153 202.381 259.771 202.547 257.994H200.164V257.115H203.621C203.621 257.97 203.519 258.771 203.279 259.518H204.5V256.256H205.525ZM215.73 256.695V257.223C215.721 257.828 215.721 258.697 215.516 259.82L214.441 259.723C214.612 258.81 214.646 258.136 214.666 257.594H211.229V256.695H215.73ZM213.504 258.707V260.465C214.417 260.431 215.354 260.362 216.209 260.24L216.268 261.021C214.432 261.354 212.352 261.383 210.799 261.393L210.701 260.523C211.224 260.519 211.81 260.514 212.43 260.504V258.707H213.504ZM217.84 256.041V258.795H218.982V259.703H217.84V262.652H216.727V256.041H217.84ZM218.123 263.814V264.693H212.02V262.066H213.113V263.814H218.123ZM226.795 256.041V264.879H225.721V256.041H226.795ZM224.08 256.812V260.123H221.043V261.9C222.435 261.891 223.636 261.822 225.008 261.588L225.105 262.477C223.602 262.74 222.283 262.789 220.701 262.789H219.93V259.264H222.977V257.691H219.92V256.812H224.08ZM234.998 256.041V259.557H236.355V260.455H234.998V264.869H233.924V256.041H234.998ZM233.24 257.398V258.268H228.035V257.398H230.125V256.168H231.209V257.398H233.24ZM230.672 258.844C231.941 258.844 232.889 259.703 232.889 260.924C232.889 262.145 231.941 262.994 230.672 262.994C229.383 262.994 228.436 262.145 228.445 260.924C228.436 259.703 229.383 258.844 230.672 258.844ZM230.672 259.732C229.979 259.732 229.48 260.201 229.48 260.924C229.48 261.646 229.979 262.105 230.672 262.096C231.346 262.105 231.844 261.646 231.854 260.924C231.844 260.201 231.346 259.732 230.672 259.732ZM240.066 258.16C240.057 259.781 240.906 261.402 242.342 262.018L241.697 262.887C240.682 262.418 239.935 261.48 239.529 260.328C239.124 261.573 238.367 262.589 237.293 263.092L236.629 262.184C238.104 261.549 238.963 259.859 238.963 258.16V256.754H240.066V258.16ZM244.07 256.041V264.879H242.977V256.041H244.07ZM253.592 259.449V260.338H252.283V264.85H251.199V256.041H252.283V259.449H253.592ZM246.756 256.9V261.773C247.933 261.754 249.188 261.651 250.516 261.373L250.633 262.291C249.148 262.584 247.732 262.672 246.424 262.672H245.682V256.9H246.756ZM262.078 262.906V263.795H254.012V262.906H255.877V260.67C255.174 260.27 254.749 259.64 254.754 258.854C254.744 257.447 256.131 256.52 258.025 256.52C259.93 256.52 261.316 257.447 261.316 258.854C261.316 259.625 260.906 260.245 260.223 260.65V262.906H262.078ZM258.025 257.379C256.707 257.379 255.809 257.936 255.818 258.854C255.809 259.762 256.707 260.328 258.025 260.328C259.344 260.328 260.252 259.762 260.252 258.854C260.252 257.936 259.344 257.379 258.025 257.379ZM256.951 262.906H259.119V261.061C258.782 261.139 258.416 261.178 258.025 261.178C257.645 261.178 257.283 261.139 256.951 261.07V262.906ZM264.148 261.832C264.158 260.592 264.51 260.211 265.125 259.83C265.545 259.566 265.857 259.234 265.857 258.746C265.857 258.199 265.438 257.848 264.9 257.848C264.412 257.848 263.943 258.16 263.914 258.814H262.693C262.723 257.506 263.709 256.832 264.91 256.832C266.229 256.832 267.137 257.564 267.137 258.727C267.137 259.518 266.736 260.035 266.102 260.416C265.535 260.758 265.301 261.1 265.291 261.832V261.92H264.148V261.832ZM264.754 264.078C264.334 264.078 263.992 263.736 263.992 263.316C263.992 262.906 264.334 262.564 264.754 262.564C265.154 262.564 265.506 262.906 265.506 263.316C265.506 263.736 265.154 264.078 264.754 264.078Z" fill="black"/>
</svg>
