<svg xmlns="http://www.w3.org/2000/svg" xmlns:xlink="http://www.w3.org/1999/xlink" width="500" zoomAndPan="magnify" viewBox="0 0 375 374.999991" height="500" preserveAspectRatio="xMidYMid meet" version="1.0"><defs><clipPath id="03d6fa7909"><path d="M 65 56.25 L 309 56.25 L 309 122 L 65 122 Z M 65 56.25 " clip-rule="nonzero"/></clipPath><clipPath id="b40838e8b5"><path d="M 83 140 L 290 140 L 290 318.75 L 83 318.75 Z M 83 140 " clip-rule="nonzero"/></clipPath></defs><g clip-path="url(#03d6fa7909)"><path fill="#737373" d="M 168.125 56.25 C 147.519531 56.25 130.625 73.144531 130.625 93.75 L 130.625 103.125 L 74.375 103.125 C 69.199219 103.125 65 107.324219 65 112.5 C 65 117.675781 69.199219 121.875 74.375 121.875 L 299.375 121.875 C 304.550781 121.875 308.75 117.675781 308.75 112.5 C 308.75 107.324219 304.550781 103.125 299.375 103.125 L 243.125 103.125 L 243.125 93.75 C 243.125 73.144531 226.230469 56.25 205.625 56.25 Z M 168.125 75 L 205.625 75 C 216.171875 75 224.375 83.203125 224.375 93.75 L 224.375 103.125 L 149.375 103.125 L 149.375 93.75 C 149.375 83.203125 157.578125 75 168.125 75 Z M 168.125 75 " fill-opacity="1" fill-rule="nonzero"/></g><g clip-path="url(#b40838e8b5)"><path fill="#737373" d="M 93.125 140.625 C 87.949219 140.625 83.75 144.824219 83.75 150 L 83.75 262.5 C 83.75 293.503906 108.992188 318.75 140 318.75 L 233.75 318.75 C 264.753906 318.75 290 293.503906 290 262.5 L 290 150 C 290 144.824219 285.800781 140.625 280.625 140.625 C 275.449219 140.625 271.25 144.824219 271.25 150 L 271.25 262.5 C 271.25 283.445312 254.695312 300 233.75 300 L 140 300 C 119.050781 300 102.5 283.445312 102.5 262.5 L 102.5 150 C 102.5 144.824219 98.300781 140.625 93.125 140.625 Z M 93.125 140.625 " fill-opacity="1" fill-rule="nonzero"/></g><path fill="#737373" d="M 158.75 159.375 C 153.574219 159.375 149.375 163.574219 149.375 168.75 L 149.375 253.125 C 149.375 258.300781 153.574219 262.5 158.75 262.5 C 163.925781 262.5 168.125 258.300781 168.125 253.125 L 168.125 168.75 C 168.125 163.574219 163.925781 159.375 158.75 159.375 Z M 158.75 159.375 " fill-opacity="1" fill-rule="nonzero"/><path fill="#737373" d="M 215 159.375 C 209.824219 159.375 205.625 163.574219 205.625 168.75 L 205.625 253.125 C 205.625 258.300781 209.824219 262.5 215 262.5 C 220.175781 262.5 224.375 258.300781 224.375 253.125 L 224.375 168.75 C 224.375 163.574219 220.175781 159.375 215 159.375 Z M 215 159.375 " fill-opacity="1" fill-rule="nonzero"/></svg>