<svg width="117" height="39" viewBox="0 0 117 39" fill="none" xmlns="http://www.w3.org/2000/svg">
<path d="M13.5883 11.428C16.5563 11.428 18.7217 11.9973 20.0843 13.136C21.447 14.2747 22.1283 16.0293 22.1283 18.4C22.1283 20.7707 21.4283 22.5067 20.0283 23.608C18.647 24.7093 16.519 25.26 13.6443 25.26H10.1723V31H6.86834V11.428H13.5883ZM14.0083 22.264C15.8377 22.264 17.079 21.9187 17.7323 21.228C18.4043 20.5187 18.7403 19.492 18.7403 18.148C18.7403 16.7853 18.3203 15.824 17.4803 15.264C16.6403 14.704 15.3243 14.424 13.5323 14.424H10.1723V22.264H14.0083ZM32.729 11.428C35.697 11.428 37.8623 11.9973 39.225 13.136C40.5876 14.2747 41.269 16.0293 41.269 18.4C41.269 20.7707 40.569 22.5067 39.169 23.608C37.7876 24.7093 35.6596 25.26 32.785 25.26H29.313V31H26.009V11.428H32.729ZM33.149 22.264C34.9783 22.264 36.2196 21.9187 36.873 21.228C37.545 20.5187 37.881 19.492 37.881 18.148C37.881 16.7853 37.461 15.824 36.621 15.264C35.781 14.704 34.465 14.424 32.673 14.424H29.313V22.264H33.149ZM45.1496 31V11.428H48.4536V27.864H57.3856V31H45.1496ZM74.953 16.048C73.6276 14.6667 71.9943 13.976 70.053 13.976C68.1116 13.976 66.469 14.6667 65.125 16.048C63.7996 17.4293 63.137 19.1093 63.137 21.088C63.137 23.048 63.7996 24.7187 65.125 26.1C66.469 27.4813 68.1116 28.172 70.053 28.172C71.9943 28.172 73.6276 27.4813 74.953 26.1C76.297 24.7187 76.969 23.048 76.969 21.088C76.969 19.1093 76.297 17.4293 74.953 16.048ZM77.389 28.312C75.4103 30.2347 72.965 31.196 70.053 31.196C67.141 31.196 64.6956 30.2347 62.717 28.312C60.7383 26.3707 59.749 23.9627 59.749 21.088C59.749 18.1947 60.7383 15.7867 62.717 13.864C64.6956 11.9227 67.141 10.952 70.053 10.952C72.965 10.952 75.4103 11.9227 77.389 13.864C79.3676 15.7867 80.357 18.1947 80.357 21.088C80.357 23.9627 79.3676 26.3707 77.389 28.312ZM98.0766 21.48H101.381V28.172C99.5326 30.2067 96.8913 31.224 93.4566 31.224C90.5633 31.224 88.1366 30.272 86.1766 28.368C84.2353 26.464 83.2646 24.056 83.2646 21.144C83.2646 18.232 84.2539 15.8053 86.2326 13.864C88.2299 11.9227 90.6379 10.952 93.4566 10.952C96.2753 10.952 98.6179 11.7733 100.485 13.416L98.7206 15.936C97.9553 15.2827 97.1806 14.8347 96.3966 14.592C95.6313 14.3307 94.7353 14.2 93.7086 14.2C91.7299 14.2 90.0686 14.844 88.7246 16.132C87.3806 17.4013 86.7086 19.0813 86.7086 21.172C86.7086 23.244 87.3619 24.9147 88.6686 26.184C89.9753 27.4347 91.5526 28.06 93.4006 28.06C95.2673 28.06 96.8259 27.6587 98.0766 26.856V21.48Z" fill="black"/>
<circle cx="111.5" cy="5.5" r="5.5" fill="#41AED9"/>
</svg>
