<svg width="111" height="39" viewBox="0 0 111 39" fill="none" xmlns="http://www.w3.org/2000/svg">
<circle cx="108.5" cy="2.5" r="2.5" fill="#41AED9"/>
<path d="M26.3614 10.224C28.9054 10.224 30.7614 10.712 31.9294 11.688C33.0974 12.664 33.6814 14.168 33.6814 16.2C33.6814 18.232 33.0814 19.72 31.8814 20.664C30.6974 21.608 28.8734 22.08 26.4094 22.08H23.4334V27H20.6014V10.224H26.3614ZM26.7214 19.512C28.2894 19.512 29.3534 19.216 29.9134 18.624C30.4894 18.016 30.7774 17.136 30.7774 15.984C30.7774 14.816 30.4174 13.992 29.6974 13.512C28.9774 13.032 27.8494 12.792 26.3134 12.792H23.4334V19.512H26.7214ZM42.7677 10.224C45.3117 10.224 47.1677 10.712 48.3357 11.688C49.5037 12.664 50.0877 14.168 50.0877 16.2C50.0877 18.232 49.4877 19.72 48.2877 20.664C47.1037 21.608 45.2797 22.08 42.8157 22.08H39.8397V27H37.0077V10.224H42.7677ZM43.1277 19.512C44.6957 19.512 45.7597 19.216 46.3197 18.624C46.8957 18.016 47.1837 17.136 47.1837 15.984C47.1837 14.816 46.8237 13.992 46.1037 13.512C45.3837 13.032 44.2557 12.792 42.7197 12.792H39.8397V19.512H43.1277ZM53.4139 27V10.224H56.2459V24.312H63.9019V27H53.4139ZM78.9597 14.184C77.8237 13 76.4237 12.408 74.7597 12.408C73.0957 12.408 71.6877 13 70.5357 14.184C69.3997 15.368 68.8317 16.808 68.8317 18.504C68.8317 20.184 69.3997 21.616 70.5357 22.8C71.6877 23.984 73.0957 24.576 74.7597 24.576C76.4237 24.576 77.8237 23.984 78.9597 22.8C80.1117 21.616 80.6877 20.184 80.6877 18.504C80.6877 16.808 80.1117 15.368 78.9597 14.184ZM81.0477 24.696C79.3517 26.344 77.2557 27.168 74.7597 27.168C72.2637 27.168 70.1677 26.344 68.4717 24.696C66.7757 23.032 65.9277 20.968 65.9277 18.504C65.9277 16.024 66.7757 13.96 68.4717 12.312C70.1677 10.648 72.2637 9.816 74.7597 9.816C77.2557 9.816 79.3517 10.648 81.0477 12.312C82.7437 13.96 83.5917 16.024 83.5917 18.504C83.5917 20.968 82.7437 23.032 81.0477 24.696ZM98.7799 18.84H101.612V24.576C100.028 26.32 97.7639 27.192 94.8199 27.192C92.3399 27.192 90.2599 26.376 88.5799 24.744C86.9159 23.112 86.0839 21.048 86.0839 18.552C86.0839 16.056 86.9319 13.976 88.6279 12.312C90.3399 10.648 92.4039 9.816 94.8199 9.816C97.2359 9.816 99.2439 10.52 100.844 11.928L99.3319 14.088C98.6759 13.528 98.0119 13.144 97.3399 12.936C96.6839 12.712 95.9159 12.6 95.0359 12.6C93.3399 12.6 91.9159 13.152 90.7639 14.256C89.6119 15.344 89.0359 16.784 89.0359 18.576C89.0359 20.352 89.5959 21.784 90.7159 22.872C91.8359 23.944 93.1879 24.48 94.7719 24.48C96.3719 24.48 97.7079 24.136 98.7799 23.448V18.84Z" fill="black"/>
</svg>
