<svg width="115" height="34" viewBox="0 0 115 34" fill="none" xmlns="http://www.w3.org/2000/svg">
<circle cx="111.5" cy="3.5" r="3.5" fill="#41AED9"/>
<path d="M13.5883 6.428C16.5563 6.428 18.7217 6.99733 20.0843 8.136C21.447 9.27467 22.1283 11.0293 22.1283 13.4C22.1283 15.7707 21.4283 17.5067 20.0283 18.608C18.647 19.7093 16.519 20.26 13.6443 20.26H10.1723V26H6.86834V6.428H13.5883ZM14.0083 17.264C15.8377 17.264 17.079 16.9187 17.7323 16.228C18.4043 15.5187 18.7403 14.492 18.7403 13.148C18.7403 11.7853 18.3203 10.824 17.4803 10.264C16.6403 9.704 15.3243 9.424 13.5323 9.424H10.1723V17.264H14.0083ZM32.729 6.428C35.697 6.428 37.8623 6.99733 39.225 8.136C40.5876 9.27467 41.269 11.0293 41.269 13.4C41.269 15.7707 40.569 17.5067 39.169 18.608C37.7876 19.7093 35.6596 20.26 32.785 20.26H29.313V26H26.009V6.428H32.729ZM33.149 17.264C34.9783 17.264 36.2196 16.9187 36.873 16.228C37.545 15.5187 37.881 14.492 37.881 13.148C37.881 11.7853 37.461 10.824 36.621 10.264C35.781 9.704 34.465 9.424 32.673 9.424H29.313V17.264H33.149ZM45.1496 26V6.428H48.4536V22.864H57.3856V26H45.1496ZM74.953 11.048C73.6276 9.66667 71.9943 8.976 70.053 8.976C68.1116 8.976 66.469 9.66667 65.125 11.048C63.7996 12.4293 63.137 14.1093 63.137 16.088C63.137 18.048 63.7996 19.7187 65.125 21.1C66.469 22.4813 68.1116 23.172 70.053 23.172C71.9943 23.172 73.6276 22.4813 74.953 21.1C76.297 19.7187 76.969 18.048 76.969 16.088C76.969 14.1093 76.297 12.4293 74.953 11.048ZM77.389 23.312C75.4103 25.2347 72.965 26.196 70.053 26.196C67.141 26.196 64.6956 25.2347 62.717 23.312C60.7383 21.3707 59.749 18.9627 59.749 16.088C59.749 13.1947 60.7383 10.7867 62.717 8.864C64.6956 6.92267 67.141 5.952 70.053 5.952C72.965 5.952 75.4103 6.92267 77.389 8.864C79.3676 10.7867 80.357 13.1947 80.357 16.088C80.357 18.9627 79.3676 21.3707 77.389 23.312ZM98.0766 16.48H101.381V23.172C99.5326 25.2067 96.8913 26.224 93.4566 26.224C90.5633 26.224 88.1366 25.272 86.1766 23.368C84.2353 21.464 83.2646 19.056 83.2646 16.144C83.2646 13.232 84.2539 10.8053 86.2326 8.864C88.2299 6.92267 90.6379 5.952 93.4566 5.952C96.2753 5.952 98.6179 6.77333 100.485 8.416L98.7206 10.936C97.9553 10.2827 97.1806 9.83467 96.3966 9.592C95.6313 9.33067 94.7353 9.2 93.7086 9.2C91.7299 9.2 90.0686 9.844 88.7246 11.132C87.3806 12.4013 86.7086 14.0813 86.7086 16.172C86.7086 18.244 87.3619 19.9147 88.6686 21.184C89.9753 22.4347 91.5526 23.06 93.4006 23.06C95.2673 23.06 96.8259 22.6587 98.0766 21.856V16.48Z" fill="white"/>
</svg>
