<svg width="56" height="45" viewBox="0 0 56 45" fill="none" xmlns="http://www.w3.org/2000/svg">
<path d="M30.6818 5.224C33.2258 5.224 35.0818 5.712 36.2498 6.688C37.4178 7.664 38.0018 9.168 38.0018 11.2C38.0018 13.232 37.4018 14.72 36.2018 15.664C35.0178 16.608 33.1938 17.08 30.7298 17.08H27.7538V22H24.9218V5.224H30.6818ZM31.0418 14.512C32.6098 14.512 33.6738 14.216 34.2338 13.624C34.8098 13.016 35.0978 12.136 35.0978 10.984C35.0978 9.816 34.7378 8.992 34.0178 8.512C33.2978 8.032 32.1698 7.792 30.6338 7.792H27.7538V14.512H31.0418Z" fill="white"/>
<path d="M41.6818 5.224C44.2258 5.224 46.0818 5.712 47.2498 6.688C48.4178 7.664 49.0018 9.168 49.0018 11.2C49.0018 13.232 48.4018 14.72 47.2018 15.664C46.0178 16.608 44.1938 17.08 41.7298 17.08H38.7538V22H35.9218V5.224H41.6818ZM42.0418 14.512C43.6098 14.512 44.6738 14.216 45.2338 13.624C45.8098 13.016 46.0978 12.136 46.0978 10.984C46.0978 9.816 45.7378 8.992 45.0178 8.512C44.2978 8.032 43.1698 7.792 41.6338 7.792H38.7538V14.512H42.0418Z" fill="white"/>
<circle cx="53.5" cy="4.5" r="2.5" fill="#41AED9"/>
</svg>
